{"glyphs":{"0":{"ha":628,"x_min":28,"x_max":600,"o":"m 314 792 q 516 683 432 792 q 600 386 600 574 q 566 182 600 274 q 468 35 532 90 q 314 -19 404 -19 q 158 35 222 -19 q 61 182 94 90 q 28 386 28 274 q 112 683 28 574 q 314 792 196 792 m 314 674 q 224 597 261 674 q 188 411 188 519 q 200 279 188 339 q 240 184 213 219 q 314 149 268 149 q 410 226 382 149 q 439 411 439 303 q 402 597 439 519 q 314 674 365 674 z "},"1":{"ha":246,"x_min":28,"x_max":218,"o":"m 208 792 l 218 792 q 204 748 208 776 q 199 689 200 719 q 199 639 199 658 l 199 151 q 199 124 199 140 q 200 90 199 108 q 203 55 201 72 q 208 24 204 38 q 217 0 211 10 q 47 0 135 10 q 63 74 60 25 q 65 151 65 122 l 65 497 q 53 600 65 569 q 28 650 42 631 q 208 792 142 697 z "},"2":{"ha":549,"x_min":14,"x_max":531,"o":"m 285 792 q 416 747 350 790 q 489 624 482 704 q 413 440 486 515 q 264 297 339 365 q 182 139 189 228 q 316 185 244 194 q 442 163 388 176 q 510 193 496 150 l 517 193 q 503 68 531 128 q 403 0 476 8 q 293 15 347 0 q 176 31 239 29 q 35 0 114 33 q 63 231 14 136 q 188 392 113 326 q 322 506 263 458 q 381 596 381 554 q 333 657 375 639 q 246 668 290 675 q 168 618 190 658 q 163 525 146 578 q 67 551 101 524 q 36 621 33 579 q 101 740 38 686 q 285 792 181 790 z "},"3":{"ha":581,"x_min":28,"x_max":556,"o":"m 124 742 q 282 792 189 789 q 426 754 358 793 q 517 601 507 699 q 490 508 517 550 q 419 426 463 465 q 518 360 481 410 q 551 213 556 311 q 465 40 543 99 q 282 -18 388 -18 q 159 3 217 -18 q 65 69 101 24 q 28 186 28 114 q 65 303 28 268 q 148 331 103 339 q 224 274 193 322 q 201 197 186 242 q 271 138 215 153 q 392 172 356 125 q 406 283 428 218 q 374 324 399 303 q 313 358 349 346 q 236 358 278 369 q 236 483 250 419 q 340 503 290 469 q 383 604 389 536 q 338 662 375 644 q 258 674 300 679 q 185 622 206 663 q 175 535 165 581 q 91 560 125 533 q 58 628 57 588 q 124 742 68 701 z "},"4":{"ha":600,"x_min":28,"x_max":572,"o":"m 343 790 l 344 792 q 508 792 432 781 q 493 717 496 767 q 490 640 490 668 l 490 307 q 539 315 519 308 q 563 335 558 321 l 572 335 q 490 167 565 194 q 491 83 490 125 q 508 0 492 40 q 343 0 428 10 q 360 82 361 35 q 361 172 360 129 q 204 188 288 185 q 28 158 121 190 l 28 235 q 75 340 28 281 q 183 469 122 399 q 292 621 244 540 q 343 790 339 701 m 361 315 l 361 558 q 269 419 318 486 q 218 326 221 351 q 361 315 285 324 z "},"5":{"ha":564,"x_min":28,"x_max":556,"o":"m 121 792 l 217 792 q 213 776 210 786 q 256 761 219 763 q 338 777 297 764 q 425 792 379 790 q 513 745 489 789 q 524 643 536 701 l 514 643 q 421 670 481 685 q 278 644 361 656 q 199 674 232 638 l 174 496 q 404 490 307 544 q 528 332 501 436 q 478 83 556 181 q 274 -18 401 -15 q 155 3 211 -18 q 63 69 99 24 q 28 188 28 115 q 64 305 28 269 q 144 332 100 340 q 217 275 188 324 q 195 199 181 243 q 263 139 210 154 q 351 158 314 131 q 399 226 388 186 q 392 319 411 274 q 339 392 374 364 q 213 436 286 433 q 67 411 139 439 q 94 614 67 436 q 121 792 121 792 z "},"6":{"ha":594,"x_min":26,"x_max":568,"o":"m 297 792 q 463 756 392 793 q 551 629 535 718 q 519 562 556 589 q 428 536 482 535 q 415 625 439 582 q 329 675 390 668 q 198 597 236 675 q 160 424 160 519 q 219 485 178 457 q 329 513 260 513 q 507 446 451 513 q 565 265 563 379 q 542 124 568 188 q 460 20 517 60 q 318 -19 404 -19 q 137 37 200 -19 q 50 178 74 93 q 28 356 26 264 q 31 458 28 408 q 101 682 38 579 q 297 792 165 785 m 306 418 q 222 377 254 418 q 190 278 190 336 q 224 178 192 218 q 306 138 257 138 q 387 178 353 138 q 421 278 421 219 q 390 377 421 336 q 306 418 360 418 z "},"7":{"ha":481,"x_min":7,"x_max":467,"o":"m 117 790 q 223 772 175 788 q 328 756 271 757 q 378 792 392 758 l 467 792 q 440 612 465 685 q 378 485 415 539 q 304 381 342 432 q 242 269 267 331 q 217 114 217 207 q 219 54 217 86 q 235 0 221 22 q 51 0 146 10 q 67 53 64 22 q 69 114 69 85 q 107 297 69 219 q 197 434 144 374 q 300 547 250 494 q 378 651 350 599 q 288 621 340 615 q 127 651 190 633 q 26 621 64 668 l 17 621 q 31 727 7 668 q 117 790 54 786 z "},"8":{"ha":558,"x_min":22,"x_max":538,"o":"m 281 792 q 446 740 383 792 q 511 601 508 689 q 431 425 521 479 q 529 214 538 375 q 281 -19 517 -14 q 28 214 42 -14 q 129 425 22 375 q 63 496 82 457 q 47 601 44 535 q 113 738 50 685 q 281 792 176 792 m 279 675 q 199 644 232 675 q 167 569 167 614 q 192 496 167 526 q 279 465 217 465 q 366 496 340 465 q 392 569 392 526 q 359 644 392 614 q 279 675 326 675 m 279 388 q 199 351 232 388 q 167 263 167 314 q 192 175 167 211 q 279 139 217 139 q 366 175 340 139 q 392 263 392 211 q 359 351 392 314 q 279 388 326 388 z "},"9":{"ha":268,"x_min":42,"x_max":226,"o":"m 135 185 q 199 158 172 185 q 226 92 226 131 q 199 27 226 54 q 135 0 172 0 q 69 27 96 0 q 42 92 42 54 q 69 158 42 131 q 135 185 96 185 z "}," ":{"ha":347,"x_min":0,"x_max":0,"o":""}," ":{"ha":347,"x_min":0,"x_max":0,"o":""},"!":{"ha":268,"x_min":42,"x_max":226,"o":"m 65 260 q 44 774 64 517 q 224 774 138 765 q 203 260 204 517 q 65 260 139 268 m 135 185 q 199 158 172 185 q 226 93 226 132 q 199 27 226 54 q 135 0 172 0 q 69 27 96 0 q 42 93 42 54 q 69 158 42 132 q 135 185 96 185 z "},"\"":{"ha":506,"x_min":42,"x_max":469,"o":"m 126 793 q 226 708 210 792 q 212 599 233 654 q 147 512 190 543 q 46 499 104 481 q 129 608 122 531 q 42 693 54 617 q 126 793 43 778 m 363 793 q 463 708 446 792 q 448 599 469 654 q 383 512 426 543 q 282 499 340 481 q 365 608 358 531 q 278 693 290 617 q 363 793 279 778 z "},"#":{"ha":922,"x_min":42,"x_max":881,"o":"m 500 219 l 319 219 l 292 108 q 282 0 271 49 q 161 0 226 10 q 207 108 194 47 q 235 218 221 163 q 171 217 199 218 q 42 207 81 213 q 42 304 46 254 q 172 296 82 300 q 254 293 200 294 q 303 483 279 388 q 242 481 269 482 q 114 472 153 476 q 114 568 118 519 q 244 561 154 564 q 322 558 271 558 l 350 667 q 360 774 371 728 q 479 774 419 764 q 433 665 444 726 l 406 557 l 588 557 q 615 667 601 611 q 625 774 635 728 q 744 774 685 764 q 699 665 710 726 l 671 558 q 750 561 708 560 q 881 568 839 564 q 881 472 863 521 q 747 481 839 476 q 653 483 707 483 l 604 293 q 678 296 638 294 q 808 304 768 300 q 808 207 792 256 q 676 217 767 213 q 585 219 629 218 l 556 108 q 546 0 536 49 q 426 0 490 10 q 471 108 460 47 q 500 219 486 163 m 339 292 l 519 292 q 568 485 543 388 l 388 485 l 339 292 z "},"$":{"ha":613,"x_min":28,"x_max":586,"o":"m 254 785 q 235 868 254 833 q 378 868 310 858 q 358 789 358 835 q 467 751 419 782 q 535 661 515 719 q 515 588 544 621 q 431 547 485 554 q 358 665 433 628 l 358 463 q 516 390 446 440 q 583 213 586 340 q 515 58 576 115 q 358 -15 453 0 q 378 -96 358 -62 q 235 -96 310 -87 q 253 -18 253 -64 q 141 12 192 -12 q 59 79 90 36 q 28 186 28 122 q 67 303 28 268 q 156 331 107 339 q 236 274 204 322 q 208 206 201 247 q 254 146 214 165 l 254 374 q 106 462 171 400 q 61 624 40 524 q 254 785 106 753 m 254 660 q 200 593 213 642 q 254 506 196 539 l 254 660 m 358 335 l 358 146 q 428 193 407 161 q 434 263 449 225 q 358 335 419 301 z "},"%":{"ha":658,"x_min":42,"x_max":617,"o":"m 131 94 q 439 679 276 371 q 479 792 478 743 q 606 792 540 782 q 526 678 556 742 l 218 94 q 178 -19 181 31 q 51 -19 122 -10 q 131 94 100 29 m 192 792 q 297 747 253 792 q 342 624 342 701 q 302 505 342 554 q 192 456 263 456 q 81 505 119 456 q 42 624 42 554 q 85 747 42 701 q 192 792 129 792 m 192 726 q 149 700 167 726 q 132 635 132 674 q 145 571 132 597 q 192 544 158 544 q 238 571 224 544 q 251 635 251 597 q 234 700 251 674 q 192 726 217 726 m 467 317 q 573 272 529 317 q 617 149 617 226 q 577 30 617 79 q 467 -19 538 -19 q 356 30 396 -19 q 317 149 317 79 q 360 272 317 226 q 467 317 404 317 m 467 251 q 424 225 442 251 q 407 161 407 199 q 420 96 407 122 q 467 69 433 69 q 513 96 499 69 q 526 161 526 122 q 509 225 526 199 q 467 251 492 251 z "},"&":{"ha":704,"x_min":28,"x_max":676,"o":"m 154 754 q 303 792 221 794 q 456 742 390 789 q 521 628 511 701 q 489 560 522 588 q 404 535 456 533 q 394 622 415 581 q 321 674 374 663 q 242 662 279 679 q 196 604 204 644 q 240 503 190 536 q 343 483 289 469 q 343 369 329 424 q 234 356 281 385 q 174 283 188 328 q 190 171 156 217 q 310 138 225 125 q 379 197 364 153 q 383 237 385 217 q 364 265 382 257 q 318 235 329 274 l 311 235 q 345 341 314 307 q 425 381 376 375 q 549 374 486 385 q 671 378 611 363 l 676 378 q 589 263 663 265 q 538 265 565 261 q 551 186 551 235 q 515 68 551 114 q 421 1 479 22 q 297 -19 363 -19 q 112 42 192 -19 q 28 213 32 103 q 65 360 29 311 q 160 426 100 410 q 63 601 65 494 q 154 754 72 699 z "},"'":{"ha":269,"x_min":42,"x_max":233,"o":"m 126 793 q 226 708 210 792 q 212 599 233 654 q 147 512 190 543 q 46 499 104 481 q 129 608 122 531 q 42 693 54 617 q 126 793 43 778 z "},"(":{"ha":342,"x_min":42,"x_max":300,"o":"m 300 868 l 297 838 q 187 613 228 736 q 146 363 146 490 q 187 113 146 236 q 297 -111 228 -10 l 300 -142 q 113 58 183 -82 q 42 363 42 199 q 113 669 43 531 q 300 868 183 808 z "},")":{"ha":342,"x_min":42,"x_max":300,"o":"m 42 868 q 228 669 158 808 q 300 363 299 531 q 229 58 300 199 q 42 -142 158 -82 l 44 -111 q 154 113 114 -10 q 194 363 194 236 q 154 613 194 490 q 44 838 114 736 l 42 868 z "},"*":{"ha":369,"x_min":42,"x_max":328,"o":"m 206 792 q 306 735 254 753 q 253 679 275 717 q 328 697 296 679 q 328 582 318 636 q 253 600 296 600 q 306 544 275 563 q 206 488 254 525 q 185 561 206 522 q 163 488 164 522 q 64 544 121 522 q 117 600 93 563 q 42 582 72 600 q 42 697 51 636 q 117 679 72 679 q 64 735 94 715 q 163 792 121 757 q 185 718 164 757 q 206 792 206 756 z "},"+":{"ha":515,"x_min":42,"x_max":474,"o":"m 308 350 q 313 260 310 294 q 322 185 317 208 q 193 185 261 193 q 201 260 197 208 q 206 350 204 294 q 115 346 150 349 q 42 336 64 342 q 42 465 50 397 q 115 457 64 461 q 206 453 150 454 q 201 544 204 508 q 193 617 197 594 q 322 617 253 608 q 313 544 317 594 q 308 453 310 508 q 400 457 364 454 q 474 465 451 461 q 474 336 465 406 q 400 346 451 342 q 308 350 364 349 z "},",":{"ha":269,"x_min":42,"x_max":233,"o":"m 126 185 q 226 100 210 183 q 212 -10 233 46 q 147 -97 190 -65 q 46 -110 104 -128 q 129 0 122 -78 q 42 85 54 8 q 126 185 43 169 z "},"-":{"ha":382,"x_min":42,"x_max":340,"o":"m 42 464 q 92 456 57 460 q 192 451 128 451 q 290 456 256 451 q 340 464 325 460 q 340 335 335 404 q 290 344 325 340 q 192 349 256 349 q 92 344 128 349 q 42 335 57 340 q 42 464 47 396 z "},"­":{"ha":382,"x_min":42,"x_max":340,"o":"m 42 464 q 92 456 57 460 q 192 451 128 451 q 290 456 256 451 q 340 464 325 460 q 340 335 335 404 q 290 344 325 340 q 192 349 256 349 q 92 344 128 349 q 42 335 57 340 q 42 464 47 396 z "},".":{"ha":268,"x_min":42,"x_max":226,"o":"m 135 185 q 199 158 172 185 q 226 92 226 131 q 199 27 226 54 q 135 0 172 0 q 69 27 96 0 q 42 92 42 54 q 69 158 42 131 q 135 185 96 185 z "},"/":{"ha":481,"x_min":42,"x_max":481,"o":"m 104 94 q 331 679 211 371 q 356 792 360 743 q 481 792 417 782 q 418 678 438 742 l 193 94 q 168 -19 164 31 q 42 -19 111 -10 q 104 94 83 29 z "},":":{"ha":268,"x_min":42,"x_max":226,"o":"m 135 185 q 199 158 172 185 q 226 92 226 131 q 199 27 226 54 q 135 0 172 0 q 69 27 96 0 q 42 92 42 54 q 69 158 42 131 q 135 185 96 185 m 135 483 q 199 456 172 483 q 226 390 226 429 q 199 326 226 353 q 135 299 172 299 q 69 326 96 299 q 42 390 42 353 q 69 456 42 429 q 135 483 96 483 z "},";":{"ha":269,"x_min":42,"x_max":233,"o":"m 135 483 q 199 456 172 483 q 226 390 226 429 q 199 326 226 353 q 135 299 172 299 q 69 326 96 299 q 42 390 42 353 q 69 456 42 429 q 135 483 96 483 m 126 185 q 226 100 210 183 q 212 -10 233 46 q 147 -97 190 -65 q 46 -110 104 -128 q 129 0 122 -78 q 42 85 54 8 q 126 185 43 169 z "},"<":{"ha":419,"x_min":42,"x_max":378,"o":"m 163 526 q 217 640 208 592 q 378 640 294 631 q 285 526 322 590 l 164 343 q 285 160 228 246 q 378 46 322 94 q 217 46 289 56 q 199 99 217 67 q 161 160 182 131 q 42 343 104 247 q 163 526 101 436 z "},"=":{"ha":515,"x_min":42,"x_max":474,"o":"m 42 465 q 115 457 64 461 q 257 453 165 453 q 400 457 349 453 q 474 465 451 461 q 474 336 465 406 q 400 346 451 342 q 257 350 349 350 q 115 346 165 350 q 42 336 64 342 q 42 465 50 397 m 42 235 q 115 226 64 231 q 257 222 165 222 q 400 226 349 222 q 474 235 451 231 q 474 106 465 175 q 400 115 451 111 q 257 119 349 119 q 115 115 165 119 q 42 106 64 111 q 42 235 50 167 z "},">":{"ha":419,"x_min":42,"x_max":378,"o":"m 257 526 q 378 343 317 436 q 257 160 314 247 q 239 130 249 146 q 221 99 229 114 q 208 71 213 85 q 203 46 203 57 q 42 46 131 56 q 135 160 97 94 q 256 343 192 246 l 135 526 q 42 640 97 590 q 203 640 125 631 q 220 588 203 618 q 257 526 238 557 z "},"?":{"ha":539,"x_min":40,"x_max":525,"o":"m 290 793 q 401 768 358 793 q 472 696 444 743 q 464 503 525 601 q 349 389 419 438 q 264 292 279 340 q 267 274 263 279 q 281 269 272 269 q 304 290 300 271 q 297 233 319 253 q 242 213 274 213 q 189 244 204 214 q 178 314 174 275 q 233 400 189 360 q 321 486 278 440 q 372 596 364 532 q 335 657 374 639 q 253 668 297 675 q 175 618 197 658 q 168 525 153 578 q 74 551 108 524 q 42 621 40 579 q 107 739 44 686 q 154 767 131 756 q 210 786 178 779 q 290 793 242 793 m 250 185 q 316 158 289 185 q 343 93 343 131 q 316 27 343 54 q 250 0 289 0 q 185 27 213 0 q 158 93 158 54 q 185 158 158 131 q 250 185 213 185 z "},"@":{"ha":910,"x_min":28,"x_max":883,"o":"m 454 650 q 754 527 632 650 q 882 224 876 404 q 864 103 883 161 q 785 -11 836 26 q 676 -49 733 -49 q 597 -31 638 -49 q 526 35 556 -14 q 438 -19 496 -14 q 292 39 344 -25 q 263 151 254 86 q 317 249 267 203 q 415 277 358 281 q 511 257 471 274 q 497 340 511 301 q 435 385 483 378 q 369 352 388 386 q 354 296 351 318 q 288 318 301 288 q 278 375 274 349 q 353 465 281 431 q 449 485 397 485 q 554 460 506 485 q 626 385 603 436 q 645 244 649 324 q 644 103 642 165 q 696 4 653 6 q 773 94 750 19 q 794 224 796 168 q 693 466 790 368 q 454 564 596 564 q 214 464 314 564 q 114 224 114 364 q 212 -16 114 82 q 454 -117 310 -114 q 518 -108 486 -118 q 575 -62 550 -97 q 607 -120 610 -87 q 565 -178 604 -153 q 454 -204 526 -204 q 153 -79 278 -204 q 28 224 28 46 q 153 525 28 400 q 454 650 278 650 m 513 193 q 490 199 511 196 q 446 196 468 203 q 419 179 429 189 q 406 158 410 169 q 402 138 403 147 q 404 122 401 128 q 424 98 406 113 q 478 93 443 83 q 513 121 499 101 l 513 193 z "},"A":{"ha":897,"x_min":-12,"x_max":897,"o":"m 510 774 q 600 768 553 768 q 690 774 642 768 q 701 660 679 724 q 849 114 775 388 q 897 0 861 49 q 718 0 801 10 q 715 59 728 31 q 682 111 703 88 q 532 257 619 190 q 494 114 514 185 q 482 0 472 50 q 303 0 399 10 q 351 114 339 49 q 411 335 382 224 q 265 382 322 400 q 215 343 232 374 q 214 275 197 313 q 262 247 231 247 q 311 282 293 247 q 346 165 353 240 q 267 56 339 90 q 153 48 214 35 q 51 117 93 61 q 4 332 -12 206 q 219 522 40 514 q 444 458 358 518 q 499 660 444 458 q 510 774 521 724 m 600 510 q 563 369 582 440 q 667 263 618 318 q 600 510 633 386 z "},"B":{"ha":860,"x_min":-7,"x_max":833,"o":"m 425 792 q 658 735 553 792 q 774 565 764 679 q 753 472 775 515 q 686 413 732 428 q 799 349 764 401 q 832 214 833 296 q 754 40 829 106 q 564 -18 679 -25 q 346 -71 440 -7 q 369 29 342 -4 l 369 465 q 367 522 369 488 q 351 579 364 557 q 522 644 439 585 l 531 644 q 515 590 517 622 q 513 531 513 558 l 513 440 q 610 468 574 431 q 644 563 646 506 q 569 655 638 629 q 419 681 500 681 q 289 653 353 681 q 190 553 225 625 q 188 419 164 489 q 245 371 211 367 q 289 410 279 375 q 340 323 336 379 q 308 221 344 267 q 201 175 272 175 q 67 238 115 182 q 6 376 19 294 q 8 536 -7 457 q 219 761 47 694 q 425 792 313 792 m 688 239 q 582 342 682 340 q 513 331 550 342 l 513 125 q 634 140 582 119 q 688 239 686 160 z "},"C":{"ha":667,"x_min":28,"x_max":650,"o":"m 339 792 q 525 738 450 792 q 607 594 593 686 q 557 457 611 508 q 407 419 503 406 q 337 453 357 428 q 313 507 317 479 q 336 603 304 561 q 438 618 368 646 q 410 592 425 615 q 414 544 394 569 q 433 536 421 538 q 456 546 446 535 q 465 588 467 557 q 364 675 446 667 q 235 592 271 672 q 200 392 200 511 q 240 201 200 279 q 361 122 279 122 q 434 163 403 122 q 480 256 465 203 q 489 356 494 310 q 638 233 618 368 q 575 61 650 136 q 365 -19 500 -14 q 114 108 199 -14 q 28 392 29 231 q 63 574 28 482 q 168 727 99 665 q 339 792 238 789 z "},"D":{"ha":868,"x_min":-7,"x_max":842,"o":"m 413 792 q 631 744 519 794 q 778 622 719 706 q 840 414 838 539 q 822 234 842 331 q 738 64 801 138 q 506 -19 656 -21 q 431 -27 471 -18 q 344 -71 392 -36 q 368 31 335 -25 q 369 465 368 31 q 367 517 369 481 q 351 579 364 554 q 522 644 439 585 l 531 644 q 513 531 508 593 q 511 124 511 328 q 655 225 617 132 q 689 424 693 318 q 611 610 685 542 q 408 681 538 679 q 289 656 346 682 q 190 553 232 631 q 176 482 174 518 q 188 419 178 446 q 245 371 211 367 q 289 410 279 375 q 340 323 336 379 q 308 221 344 267 q 201 175 272 175 q 67 238 115 182 q 6 376 19 294 q 8 536 -7 457 q 208 757 46 688 q 413 792 304 794 z "},"E":{"ha":947,"x_min":-17,"x_max":956,"o":"m 758 849 q 824 843 786 863 q 880 742 876 810 q 811 635 883 674 q 741 622 781 622 q 664 625 701 622 q 528 647 597 631 l 528 463 q 590 457 560 464 q 661 451 621 450 q 715 475 693 451 q 613 342 744 356 q 528 344 560 342 l 528 90 q 650 52 581 64 q 775 57 719 40 q 823 86 801 65 q 829 135 844 107 q 924 104 893 147 q 944 3 956 61 q 871 -83 933 -54 q 683 -93 782 -111 q 489 -28 551 -65 q 385 19 426 8 q 366 4 365 21 q 383 -14 367 -12 q 257 -35 321 -57 q 186 63 193 -12 q 274 172 185 151 q 385 161 329 182 l 385 675 q 281 642 331 672 q 204 550 232 611 q 203 428 178 492 q 260 379 226 375 q 304 418 294 383 q 355 331 351 388 q 323 229 358 275 q 217 183 288 183 q 35 303 86 196 q 7 533 -17 411 q 210 771 44 707 q 415 786 307 800 q 604 756 503 772 q 706 767 656 747 q 753 799 733 778 q 758 849 774 821 z "},"F":{"ha":843,"x_min":-17,"x_max":861,"o":"m 736 850 q 803 844 769 863 q 858 748 854 813 q 790 646 861 683 q 526 643 668 596 l 526 465 q 653 454 586 456 q 707 478 685 453 q 639 350 733 376 q 526 347 586 340 l 526 114 q 529 54 526 86 q 546 0 532 22 q 365 0 458 10 q 382 53 379 22 q 385 114 385 85 q 383 676 383 375 q 281 643 331 674 q 204 551 232 613 q 203 418 178 488 q 260 369 226 365 q 304 408 294 374 q 355 322 351 378 q 323 219 358 265 q 217 174 288 174 q 35 299 86 188 q 7 535 -17 411 q 114 717 31 647 q 329 790 197 788 q 521 771 422 793 q 663 761 592 750 q 731 800 700 769 q 736 850 751 821 z "},"G":{"ha":688,"x_min":28,"x_max":660,"o":"m 346 792 q 529 741 461 792 q 607 594 597 690 q 558 464 613 519 q 407 419 503 408 q 337 454 357 429 q 313 508 317 479 q 336 604 304 561 q 438 619 368 647 q 410 593 425 617 q 414 544 394 569 q 451 540 433 528 q 465 589 468 553 q 430 651 460 626 q 364 675 400 675 q 235 592 271 672 q 200 393 200 511 q 240 203 200 281 q 361 124 279 126 q 472 208 439 129 q 489 356 504 288 q 529 357 511 357 q 651 381 592 360 q 660 379 651 381 q 639 267 636 332 q 635 46 636 160 q 569 -183 629 -111 q 414 -250 508 -254 q 284 -199 328 -246 q 256 -92 240 -151 q 307 -40 271 -49 q 373 -49 343 -32 q 400 -101 403 -67 q 389 -99 394 -97 q 380 -105 383 -100 q 378 -115 376 -110 q 390 -124 381 -121 q 472 -94 440 -133 q 499 10 501 -53 q 365 -19 442 -18 q 114 110 199 -12 q 28 393 29 232 q 65 574 28 483 q 173 728 101 665 q 346 792 244 792 z "},"H":{"ha":911,"x_min":-17,"x_max":883,"o":"m 546 774 q 529 724 532 751 q 526 660 526 696 l 526 465 q 722 465 622 442 l 722 660 q 719 716 722 686 q 703 774 715 746 q 883 774 796 764 q 867 719 869 751 q 864 660 864 688 l 864 113 q 867 53 864 85 q 883 0 869 22 q 703 0 796 8 q 719 53 717 21 q 722 113 722 85 l 722 328 q 526 328 622 354 l 526 114 q 529 53 526 85 q 546 0 532 22 q 365 0 458 10 q 381 53 378 22 q 385 114 385 85 l 383 660 q 281 635 331 658 q 204 551 232 611 q 203 418 178 488 q 260 369 226 365 q 304 408 294 374 q 355 322 351 378 q 323 219 358 265 q 217 174 288 174 q 35 299 86 188 q 7 535 -17 411 q 329 774 60 764 q 418 771 372 774 q 546 774 478 765 z "},"I":{"ha":574,"x_min":-17,"x_max":546,"o":"m 546 772 q 526 658 522 724 l 526 113 q 529 53 526 85 q 546 0 532 22 q 365 0 458 10 q 381 53 378 21 q 385 113 385 85 l 383 658 q 281 634 331 657 q 204 551 232 611 q 203 418 178 488 q 260 369 226 365 q 304 408 294 372 q 355 322 351 378 q 323 219 358 265 q 217 174 288 174 q 35 299 86 186 q 7 533 -17 411 q 329 771 60 763 q 418 769 372 772 q 546 772 478 764 z "},"J":{"ha":644,"x_min":-3,"x_max":617,"o":"m 606 792 l 617 792 q 614 786 615 789 q 598 708 601 756 q 594 624 594 660 q 596 126 594 413 q 526 -181 596 -99 q 350 -253 474 -249 q 167 -217 251 -254 q 35 -85 83 -179 q 0 74 -3 -10 q 56 233 3 157 q 167 301 100 289 q 282 294 235 314 q 350 196 347 265 q 343 113 354 154 q 292 133 328 133 q 236 83 257 132 q 240 -50 213 4 q 344 -125 267 -121 q 433 -48 413 -122 q 451 119 453 26 l 451 651 q 433 761 456 715 q 606 792 476 753 z "},"K":{"ha":936,"x_min":-17,"x_max":936,"o":"m 700 750 q 810 792 739 785 q 897 752 871 790 q 922 663 924 714 q 844 526 917 556 q 697 579 772 496 q 752 608 731 586 q 774 654 774 631 q 758 674 772 672 q 729 660 744 675 q 611 468 669 597 l 840 114 q 936 0 875 50 q 739 0 835 10 q 724 53 740 22 q 688 113 707 83 l 553 322 q 533 251 540 283 q 526 199 526 219 l 526 114 q 529 53 526 85 q 546 0 532 22 q 365 0 458 10 q 381 53 378 21 q 385 113 385 85 l 383 658 q 281 634 331 657 q 204 551 232 611 q 203 418 178 488 q 260 369 226 365 q 304 408 294 374 q 355 322 351 378 q 323 219 358 265 q 217 174 288 174 q 35 299 86 188 q 7 535 -17 411 q 329 772 60 763 q 418 769 372 772 q 546 772 478 764 q 529 719 532 750 q 526 660 526 688 l 526 436 q 586 598 544 506 q 700 750 628 690 z "},"L":{"ha":939,"x_min":-17,"x_max":953,"o":"m 418 769 q 546 772 478 764 q 529 719 532 750 q 526 658 526 688 l 526 79 q 576 57 550 67 q 679 31 622 39 q 788 39 736 24 q 837 67 815 47 q 844 115 858 88 q 934 63 915 128 q 907 -64 953 -3 q 696 -125 838 -147 q 552 -81 607 -108 q 463 -29 497 -53 q 397 1 428 -6 q 381 -8 386 4 q 397 -32 376 -29 q 271 -53 335 -76 q 200 44 207 -31 q 286 154 199 132 q 385 147 336 163 q 383 658 385 403 q 281 633 331 657 q 204 550 232 610 q 203 417 178 486 q 260 368 226 364 q 304 407 294 372 q 355 320 351 376 q 323 218 358 264 q 217 172 288 172 q 35 298 86 186 q 7 533 -17 410 q 329 772 60 763 q 418 769 372 772 z "},"M":{"ha":1025,"x_min":-17,"x_max":997,"o":"m 997 774 q 982 719 985 750 q 979 660 979 689 l 979 114 q 997 0 974 50 q 818 0 911 10 q 833 53 831 21 q 836 113 836 85 l 836 393 q 757 128 786 264 q 682 135 719 135 q 606 128 643 135 q 526 393 574 264 l 526 114 q 529 53 526 85 q 546 0 532 22 q 365 0 458 10 q 381 53 378 22 q 385 114 385 85 l 383 660 q 281 635 331 658 q 204 551 232 611 q 203 418 178 488 q 260 369 226 365 q 304 408 294 374 q 355 322 351 378 q 323 219 358 265 q 217 174 288 174 q 35 299 86 188 q 7 535 -17 411 q 329 774 60 764 q 418 771 372 774 q 546 774 478 765 q 593 552 549 681 q 682 304 638 424 q 728 440 696 353 q 789 620 760 526 q 818 774 818 714 q 897 769 857 769 q 997 774 947 768 z "},"N":{"ha":954,"x_min":-17,"x_max":926,"o":"m 747 772 q 833 768 788 768 q 926 772 879 768 q 910 719 913 750 q 908 660 908 688 q 908 114 908 388 q 910 53 908 85 q 926 0 913 22 q 836 4 883 4 q 747 0 747 0 q 660 220 728 99 q 526 442 592 342 l 526 114 q 529 53 526 85 q 546 0 532 22 q 365 0 458 10 q 381 53 378 22 q 385 114 385 85 l 383 660 q 281 635 331 658 q 204 551 232 611 q 203 418 178 488 q 260 369 226 365 q 304 408 294 374 q 355 322 351 378 q 323 219 358 265 q 217 174 288 174 q 35 299 86 188 q 7 535 -17 411 q 329 774 60 764 q 418 771 372 774 q 546 772 478 767 q 632 529 561 653 q 765 333 703 406 l 765 660 q 763 720 765 689 q 747 772 760 751 z "},"O":{"ha":654,"x_min":21,"x_max":631,"o":"m 331 792 q 482 739 415 790 q 590 594 556 681 q 626 415 624 507 q 607 228 631 321 q 519 64 583 136 q 353 -18 451 -8 q 174 29 254 -28 q 70 164 104 83 q 31 329 36 244 q 43 527 21 429 q 132 701 65 625 q 93 531 88 622 q 121 438 94 479 q 196 379 147 396 q 231 190 194 281 q 349 125 268 115 q 416 176 393 138 q 446 256 439 214 q 459 426 463 335 q 422 592 456 517 q 384 649 410 622 q 322 675 358 675 q 251 653 286 675 q 210 582 217 632 q 231 518 206 524 q 268 525 256 513 q 273 581 290 554 q 242 611 256 607 q 363 593 322 642 q 393 482 403 544 q 363 415 388 449 q 281 378 338 382 q 134 438 174 378 q 104 582 94 497 q 190 751 114 692 q 331 792 250 792 z "},"P":{"ha":786,"x_min":-7,"x_max":772,"o":"m 435 790 q 542 776 476 790 q 664 725 608 761 q 743 638 714 692 q 772 510 772 585 q 701 333 772 394 q 513 269 631 272 l 513 114 q 515 54 513 86 q 531 0 517 22 q 351 0 443 10 q 364 33 360 14 q 369 73 368 51 q 369 114 369 94 l 369 464 q 369 504 369 483 q 364 544 368 525 q 351 578 360 564 q 522 643 439 583 l 531 643 q 515 589 517 621 q 513 529 513 557 l 513 383 q 599 411 563 378 q 636 525 635 444 q 560 644 631 608 q 408 679 489 679 q 308 663 356 679 q 222 603 261 647 q 188 418 156 524 q 244 369 210 365 q 289 408 279 374 q 340 322 336 378 q 308 219 344 265 q 201 174 272 174 q 67 237 115 181 q 6 374 19 293 q 8 535 -7 456 q 190 747 43 678 q 435 790 269 790 z "},"Q":{"ha":654,"x_min":21,"x_max":694,"o":"m 331 792 q 482 739 415 790 q 590 594 556 681 q 626 415 624 507 q 607 228 631 321 q 519 64 583 136 q 472 24 499 40 q 578 -61 514 -53 q 619 -55 600 -62 q 653 -15 639 -47 q 655 -124 694 -62 q 501 -175 615 -185 q 406 -121 443 -165 q 346 -18 369 -76 q 174 29 250 -25 q 70 164 104 83 q 31 329 36 244 q 43 527 21 429 q 132 701 65 625 q 93 531 88 622 q 121 438 94 479 q 196 379 147 396 q 231 190 194 281 q 257 153 240 168 q 324 180 285 178 q 390 146 363 182 q 446 256 436 192 q 459 426 463 335 q 422 592 456 517 q 384 649 410 622 q 322 675 358 675 q 251 653 286 675 q 210 582 217 632 q 231 518 206 524 q 268 525 256 513 q 273 581 290 554 q 242 611 256 607 q 363 593 322 642 q 393 482 403 544 q 363 415 388 449 q 281 378 338 382 q 134 438 174 378 q 104 582 94 497 q 190 751 114 692 q 331 792 250 792 z "},"R":{"ha":833,"x_min":-7,"x_max":833,"o":"m 435 790 q 664 725 557 790 q 743 638 714 692 q 772 510 772 585 q 738 376 772 431 q 642 296 703 322 l 642 294 q 721 268 679 297 q 759 193 749 242 q 779 94 769 144 q 833 0 800 18 q 708 3 746 0 q 653 38 669 7 q 622 147 638 69 q 594 228 615 189 q 513 268 574 268 l 513 114 q 515 54 513 86 q 531 0 518 22 q 351 0 444 10 q 364 33 360 14 q 369 73 368 51 q 369 114 369 94 l 369 464 q 367 524 369 493 q 351 578 364 556 q 522 643 439 583 l 531 643 q 515 589 518 621 q 513 529 513 557 l 513 383 q 599 410 564 376 q 636 525 635 444 q 579 632 635 588 q 408 679 524 676 q 219 601 294 683 q 188 418 153 524 q 244 369 208 365 q 289 408 279 374 q 340 322 336 378 q 308 219 344 265 q 201 174 272 174 q 67 237 115 181 q 6 374 19 293 q 8 535 -7 456 q 190 747 43 678 q 435 790 278 792 z "},"S":{"ha":613,"x_min":28,"x_max":588,"o":"m 306 792 q 472 749 389 797 q 542 633 529 708 q 499 522 546 565 q 372 489 453 478 q 308 524 331 496 q 299 599 285 553 q 333 636 307 625 q 397 632 358 647 q 374 610 388 629 q 378 572 361 592 q 412 566 389 563 q 435 607 435 569 q 388 659 431 640 q 306 675 346 678 q 238 656 271 674 q 200 593 206 639 q 237 517 199 546 q 315 476 275 489 q 440 435 376 458 q 545 361 503 411 q 583 213 588 311 q 499 40 576 99 q 297 -19 421 -19 q 161 1 222 -19 q 64 68 100 22 q 28 186 28 114 q 67 303 28 268 q 156 331 107 339 q 236 274 204 322 q 211 188 196 240 q 285 124 226 136 q 399 151 357 117 q 440 236 440 185 q 423 283 440 260 q 369 329 406 307 q 274 368 332 351 q 113 454 186 390 q 61 624 40 518 q 151 744 83 699 q 306 792 218 789 z "},"T":{"ha":894,"x_min":-17,"x_max":910,"o":"m 736 750 q 782 783 763 761 q 786 831 801 804 q 869 815 832 846 q 908 715 910 776 q 840 617 906 653 q 694 593 774 589 q 556 615 626 599 l 556 114 q 558 53 556 85 q 575 0 561 22 q 394 0 488 10 q 411 53 408 22 q 414 114 414 85 l 413 650 q 324 649 363 657 q 224 585 265 636 q 204 446 179 521 q 259 401 224 400 q 304 436 294 403 q 356 351 353 406 q 324 250 360 296 q 218 201 289 204 q 31 310 78 208 q 8 535 -17 413 q 208 754 46 703 q 417 769 304 782 q 633 740 533 753 q 736 750 685 733 z "},"U":{"ha":878,"x_min":-17,"x_max":850,"o":"m 418 769 q 546 772 478 764 q 529 722 532 750 q 526 658 526 693 l 526 236 q 529 183 525 213 q 550 132 533 154 q 607 110 567 110 q 665 132 647 110 q 685 184 682 154 q 689 236 689 214 l 689 658 q 669 772 693 724 q 850 772 763 763 q 833 718 836 750 q 831 658 831 686 l 831 233 q 826 177 831 218 q 803 91 822 136 q 738 13 783 46 q 607 -19 692 -19 q 476 13 522 -19 q 410 91 431 46 q 387 177 390 136 q 383 233 383 218 l 383 658 q 281 633 331 657 q 204 550 232 610 q 203 417 178 486 q 260 368 226 364 q 304 407 294 372 q 355 320 351 376 q 323 218 358 264 q 217 172 288 172 q 35 298 86 186 q 7 533 -17 410 q 329 772 60 763 q 418 769 372 772 z "},"V":{"ha":917,"x_min":-17,"x_max":917,"o":"m 408 768 q 449 767 429 767 q 494 772 469 768 q 492 719 486 750 q 506 658 499 688 q 613 243 557 457 q 718 658 667 457 q 731 772 740 722 q 917 772 818 763 q 868 658 881 724 q 721 103 794 381 q 708 -11 704 35 q 515 -11 614 -3 q 504 103 519 36 q 357 656 432 369 q 270 627 311 651 q 204 550 229 603 q 203 417 178 486 q 260 368 226 364 q 304 407 294 372 q 355 320 351 376 q 323 218 358 264 q 217 172 288 172 q 35 298 86 186 q 7 533 -17 410 q 329 772 60 763 q 408 768 369 771 z "},"W":{"ha":1279,"x_min":-17,"x_max":1279,"o":"m 408 768 q 494 772 450 767 q 506 658 485 724 q 613 243 557 453 q 703 594 658 419 q 717 690 717 644 q 869 690 790 675 q 885 596 868 644 q 974 243 929 421 q 1081 658 1024 439 q 1092 772 1101 724 q 1279 772 1179 763 q 1229 658 1243 724 q 1083 103 1156 381 q 1071 -11 1061 38 q 974 -7 1029 -7 q 883 -11 922 -7 q 872 103 893 38 q 794 403 833 261 q 714 103 754 257 q 701 -11 692 38 q 515 -11 611 -3 q 504 103 525 38 q 357 656 433 367 q 270 627 311 651 q 204 550 229 603 q 203 417 178 486 q 260 368 226 364 q 304 407 294 372 q 355 320 351 376 q 323 218 358 264 q 217 172 288 172 q 35 298 86 186 q 7 533 -17 410 q 329 772 60 763 q 408 768 369 769 z "},"X":{"ha":901,"x_min":-17,"x_max":888,"o":"m 688 772 q 888 772 779 763 q 807 658 838 724 l 660 385 q 806 113 733 249 q 886 0 836 50 q 688 0 785 10 q 675 52 689 21 q 644 113 661 83 l 579 235 l 514 113 q 472 0 475 49 q 274 0 375 10 q 353 113 324 50 q 499 385 426 249 l 353 656 q 268 626 308 650 q 204 551 228 603 q 203 418 178 488 q 260 369 226 365 q 304 408 294 372 q 355 322 351 378 q 323 219 358 265 q 217 174 288 174 q 35 299 86 188 q 7 533 -17 411 q 114 708 31 646 q 329 772 197 771 q 471 772 393 767 q 513 658 475 722 q 579 535 547 596 q 646 658 613 596 q 688 772 685 722 z "},"Y":{"ha":888,"x_min":-17,"x_max":860,"o":"m 7 533 q 315 771 58 754 q 428 769 372 772 q 547 772 483 765 q 528 710 532 746 q 525 640 525 674 l 525 500 q 531 409 522 451 q 590 367 540 367 q 653 390 622 368 q 696 451 683 411 l 696 640 q 694 711 697 675 q 674 772 690 747 q 860 772 758 764 q 841 710 844 746 q 838 640 838 674 l 838 306 q 775 45 839 125 q 603 -35 711 -35 q 453 16 504 -35 q 419 136 403 67 q 476 197 436 186 q 551 189 517 208 q 583 129 586 169 q 569 131 576 133 q 560 124 563 129 q 559 112 557 118 q 572 103 561 106 q 667 139 631 94 q 692 208 688 168 q 694 289 696 247 q 634 249 669 265 q 561 233 599 233 q 460 257 500 233 q 401 338 421 281 q 382 496 382 396 q 382 658 383 568 q 281 633 329 657 q 204 550 232 610 q 203 417 178 486 q 260 368 226 364 q 304 407 294 372 q 355 320 351 376 q 323 218 358 264 q 217 172 288 172 q 35 298 86 186 q 7 533 -17 410 z "},"Z":{"ha":939,"x_min":-1,"x_max":946,"o":"m 786 811 q 869 796 832 826 q 900 660 925 740 q 843 576 876 614 q 446 106 674 376 q 557 51 497 76 q 659 26 601 33 q 768 32 717 18 q 816 60 794 40 q 825 108 838 81 q 915 78 883 121 q 936 -21 946 35 q 864 -106 926 -76 q 676 -115 776 -133 q 533 -75 588 -99 q 443 -31 478 -51 q 378 -4 408 -11 q 360 -19 358 -3 q 376 -37 361 -35 q 251 -57 314 -79 q 181 39 188 -35 q 279 147 182 136 q 417 303 335 210 q 642 582 499 397 q 470 626 554 599 q 325 646 386 654 q 263 622 294 639 q 215 575 232 606 q 213 443 188 521 q 273 394 235 396 q 328 414 311 393 q 352 317 361 371 q 281 235 343 264 q 165 228 232 215 q 54 294 97 240 q 0 451 1 369 q 33 607 -1 533 q 189 744 82 707 q 417 768 296 782 q 528 744 474 761 q 633 721 583 726 q 735 731 685 714 q 781 763 761 742 q 786 811 801 785 z "},"[":{"ha":307,"x_min":42,"x_max":265,"o":"m 42 844 q 154 838 94 838 q 265 860 214 839 q 265 724 256 794 q 151 742 215 746 l 151 -36 q 265 -17 210 -42 q 265 -153 256 -82 q 159 -134 225 -133 q 42 -140 93 -135 q 54 1 57 -94 l 54 722 q 42 844 51 811 z "},"\\":{"ha":426,"x_min":42,"x_max":385,"o":"m 336 94 q 385 -19 349 29 q 260 -19 317 -10 q 247 94 269 31 l 90 678 q 42 792 78 742 q 167 792 104 782 q 179 679 157 743 q 336 94 261 371 z "},"]":{"ha":307,"x_min":42,"x_max":265,"o":"m 42 860 q 153 838 93 839 q 265 844 213 838 q 253 722 256 811 l 253 1 q 253 -58 253 -32 q 257 -103 254 -83 q 265 -140 260 -124 q 148 -134 214 -135 q 42 -153 82 -133 q 42 -17 51 -82 q 156 -36 97 -42 l 156 742 q 42 724 92 746 q 42 860 51 794 z "},"_":{"ha":649,"x_min":42,"x_max":607,"o":"m 42 -19 q 138 -28 71 -24 q 325 -32 204 -32 q 511 -28 444 -32 q 607 -19 578 -24 q 607 -149 597 -79 q 511 -139 578 -143 q 325 -135 444 -135 q 138 -139 204 -135 q 42 -149 71 -143 q 42 -19 51 -87 z "},"a":{"ha":439,"x_min":7,"x_max":425,"o":"m 201 485 q 307 461 258 485 q 379 386 356 438 q 399 246 401 325 q 397 104 397 167 q 425 0 396 56 q 333 -11 369 -24 q 279 35 297 1 q 190 -19 249 -14 q 44 39 97 -26 q 15 151 7 88 q 69 249 21 203 q 167 278 111 281 q 264 258 224 275 q 250 340 264 301 q 188 386 236 379 q 122 352 140 386 q 107 297 104 318 q 40 319 54 289 q 32 374 26 349 q 106 465 33 431 q 201 485 150 485 m 265 194 q 199 196 233 206 q 159 160 165 183 q 157 124 153 136 q 177 99 158 114 q 231 94 196 85 q 265 122 251 103 l 265 194 z "},"b":{"ha":471,"x_min":14,"x_max":457,"o":"m 175 774 l 185 774 q 171 740 175 760 q 166 700 167 721 q 165 660 165 679 l 165 451 q 275 483 213 481 q 409 401 361 479 q 457 239 457 324 q 438 117 457 176 q 381 19 418 57 q 289 -19 343 -19 q 216 -1 243 -19 q 165 40 189 17 l 165 0 q 14 0 93 8 q 31 53 28 21 q 33 113 33 85 l 33 518 q 31 577 33 544 q 14 632 28 610 q 175 774 118 679 m 333 249 q 308 353 331 318 q 254 388 285 388 q 165 346 194 381 l 165 168 q 247 113 194 121 q 333 249 336 115 z "},"c":{"ha":443,"x_min":13,"x_max":431,"o":"m 242 483 q 338 464 293 483 q 413 374 410 429 q 403 319 417 349 q 338 296 390 289 q 322 351 339 317 q 257 386 304 385 q 174 338 200 382 q 147 235 147 293 q 176 150 149 185 q 256 113 204 115 q 314 144 289 114 q 335 213 339 175 q 408 188 385 218 q 429 113 431 158 q 381 24 426 65 q 258 -19 336 -17 q 53 96 131 -18 q 14 236 13 156 q 90 426 13 358 q 242 483 154 481 z "},"d":{"ha":492,"x_min":14,"x_max":478,"o":"m 469 774 q 452 703 454 742 q 451 631 450 665 q 450 114 450 382 q 478 0 450 42 q 375 -3 415 -21 q 324 56 335 14 q 267 5 296 29 q 183 -19 238 -19 q 91 19 129 -19 q 33 117 53 57 q 14 239 14 176 q 62 401 14 324 q 196 483 110 479 q 317 444 271 479 l 317 518 q 297 632 321 582 q 461 774 403 679 l 469 774 m 318 333 q 277 369 301 351 q 217 388 253 386 q 179 372 197 388 q 150 325 161 356 q 139 249 139 294 q 147 175 139 206 q 175 128 156 144 q 225 113 194 113 q 281 140 257 115 q 318 188 306 164 l 318 333 z "},"e":{"ha":436,"x_min":14,"x_max":422,"o":"m 243 485 q 340 470 292 490 q 407 401 388 450 q 392 296 421 350 q 287 231 354 242 q 149 229 219 219 q 181 143 147 179 q 256 115 208 114 q 295 133 288 118 q 278 164 303 147 q 366 197 314 210 q 422 110 418 185 q 370 22 419 60 q 239 -19 321 -17 q 90 39 161 -22 q 14 236 18 100 q 73 403 15 336 q 243 485 131 471 m 299 371 q 240 383 272 390 q 183 349 207 375 q 151 275 154 318 q 231 277 190 271 q 293 306 272 283 q 299 371 326 342 z "},"f":{"ha":313,"x_min":-14,"x_max":429,"o":"m 290 793 q 380 767 335 793 q 429 685 425 740 q 367 590 424 607 q 256 636 311 574 q 301 678 294 646 q 285 715 307 711 q 230 688 250 715 q 201 617 210 660 q 192 503 192 563 q 257 499 228 497 q 311 522 289 499 q 296 471 304 497 q 281 428 289 444 q 263 402 274 411 q 235 390 253 393 q 192 388 218 388 l 192 114 q 211 0 188 50 q 40 0 129 10 q 57 53 54 21 q 60 113 60 85 l 58 393 q -14 375 21 396 q 13 453 -1 421 q 58 501 28 486 q 81 658 56 579 q 290 793 126 789 z "},"g":{"ha":483,"x_min":14,"x_max":469,"o":"m 194 483 q 317 444 263 483 l 317 465 q 460 483 388 463 l 469 483 q 449 389 447 431 q 449 50 446 215 q 389 -179 449 -107 q 236 -251 329 -251 q 105 -206 151 -251 q 74 -96 58 -160 q 124 -44 89 -53 q 190 -51 160 -35 q 218 -101 221 -68 q 207 -99 213 -97 q 199 -106 201 -101 q 198 -117 196 -111 q 208 -125 200 -122 q 292 -93 260 -133 q 313 -28 310 -68 q 315 49 315 13 q 262 2 290 24 q 183 -19 233 -19 q 91 19 129 -19 q 33 117 53 57 q 14 239 14 176 q 61 401 14 324 q 194 483 108 478 m 217 388 q 179 372 197 388 q 150 325 161 356 q 139 249 139 294 q 147 175 139 206 q 175 128 156 144 q 225 113 194 113 q 281 139 257 115 q 317 186 304 163 l 317 335 q 293 357 307 344 q 260 378 279 369 q 217 388 242 386 z "},"h":{"ha":493,"x_min":14,"x_max":479,"o":"m 175 774 l 185 774 q 171 740 175 760 q 166 700 167 721 q 165 660 165 679 l 165 390 q 223 453 188 424 q 303 483 258 482 q 461 238 461 488 l 461 114 q 479 0 456 50 q 308 0 397 10 q 328 113 332 49 l 328 233 q 320 312 329 275 q 272 349 311 349 q 214 322 246 347 q 165 253 182 297 l 165 114 q 185 0 161 50 q 14 0 103 10 q 31 53 28 21 q 33 113 33 85 l 33 518 q 31 578 33 546 q 14 632 28 610 q 175 774 118 679 z "},"i":{"ha":213,"x_min":14,"x_max":199,"o":"m 107 763 q 172 735 144 763 q 199 669 199 708 q 172 605 199 632 q 107 578 144 578 q 41 605 68 578 q 14 669 14 632 q 41 735 14 708 q 107 763 68 763 m 182 483 l 192 485 q 178 451 182 469 q 174 410 175 432 q 172 369 172 389 l 172 114 q 192 0 168 50 q 21 0 110 10 q 38 53 35 21 q 40 113 40 85 l 40 351 q 38 411 40 379 q 21 465 35 443 q 182 483 103 461 z "},"j":{"ha":214,"x_min":-215,"x_max":200,"o":"m 107 763 q 173 735 146 763 q 200 669 200 708 q 173 605 200 632 q 107 578 146 578 q 41 605 68 578 q 14 669 14 632 q 41 735 14 708 q 107 763 68 763 m 193 485 q 179 451 183 469 q 174 410 175 432 q 174 369 174 389 q 175 50 174 253 q 115 -179 175 -107 q -39 -251 54 -251 q -169 -203 -124 -251 q -200 -96 -215 -156 q -150 -44 -186 -53 q -84 -51 -114 -35 q -56 -101 -54 -68 q -68 -99 -62 -97 q -76 -106 -74 -101 q -77 -117 -79 -111 q -65 -125 -75 -122 q 17 -93 -15 -132 q 38 -34 35 -68 q 40 38 40 0 q 42 351 42 182 q 22 465 46 415 q 183 483 103 461 q 193 485 183 483 z "},"k":{"ha":469,"x_min":14,"x_max":476,"o":"m 175 774 l 185 774 q 171 740 175 760 q 166 700 167 721 q 165 660 165 679 l 165 379 q 232 451 193 421 q 322 485 271 482 q 401 455 376 483 q 425 385 425 426 q 369 289 421 322 q 265 251 318 256 l 265 250 q 316 247 292 250 q 365 228 340 244 q 403 163 393 206 q 422 78 414 119 q 447 27 431 47 q 476 0 463 7 q 349 3 386 0 q 299 31 313 6 q 269 122 285 57 q 246 181 258 161 q 215 206 233 200 q 165 213 196 213 l 165 114 q 185 0 161 50 q 14 0 103 10 q 31 53 28 21 q 33 113 33 85 l 33 518 q 31 578 33 546 q 14 632 28 610 q 175 774 118 679 m 306 363 q 287 383 304 381 q 251 375 269 385 q 165 271 210 343 l 165 269 q 271 300 225 272 q 306 363 308 325 z "},"l":{"ha":199,"x_min":14,"x_max":185,"o":"m 33 518 q 14 632 38 582 q 175 774 118 679 l 185 774 q 171 740 175 760 q 166 700 167 721 q 165 660 165 679 l 165 114 q 185 0 161 50 q 14 0 103 10 q 33 113 38 49 l 33 518 z "},"m":{"ha":778,"x_min":14,"x_max":764,"o":"m 175 483 l 185 483 q 165 397 165 447 q 221 455 186 428 q 301 483 256 482 q 440 375 406 483 q 498 448 463 414 q 588 483 533 482 q 746 238 746 488 l 746 114 q 764 0 740 50 q 594 0 682 10 q 613 113 617 49 l 613 233 q 605 312 614 275 q 557 349 596 349 q 504 326 533 347 q 456 268 475 306 l 457 114 q 475 0 453 50 q 306 0 393 10 q 324 113 328 49 l 324 233 q 316 312 325 275 q 268 349 307 349 q 213 325 243 347 q 165 264 183 303 l 165 114 q 168 53 165 85 q 185 0 171 22 q 14 0 103 10 q 33 113 38 49 l 33 351 q 14 465 38 415 q 175 483 96 461 z "},"n":{"ha":489,"x_min":14,"x_max":475,"o":"m 175 483 l 185 485 q 169 443 174 467 q 165 397 165 419 q 222 457 189 431 q 299 483 256 483 q 457 238 457 488 l 457 114 q 475 0 451 50 q 306 0 393 10 q 324 113 328 49 l 324 233 q 316 312 325 275 q 268 349 307 349 q 213 325 243 347 q 165 264 183 303 l 165 114 q 185 0 161 50 q 14 0 103 10 q 31 53 28 21 q 33 113 33 85 l 33 353 q 31 417 33 388 q 14 467 28 446 q 175 483 96 463 z "},"o":{"ha":475,"x_min":14,"x_max":461,"o":"m 238 483 q 396 416 331 483 q 461 232 461 349 q 403 54 461 128 q 238 -19 344 -19 q 72 54 131 -19 q 14 232 14 128 q 79 416 14 349 q 238 483 144 483 m 238 388 q 175 347 201 388 q 149 250 149 307 q 169 153 149 193 q 238 114 189 114 q 306 153 286 114 q 326 250 326 193 q 301 347 326 307 q 238 388 275 388 z "},"p":{"ha":471,"x_min":14,"x_max":457,"o":"m 254 388 q 165 346 194 381 l 165 168 q 247 113 194 121 q 332 249 336 115 q 308 353 331 318 q 254 388 285 388 m 175 483 l 185 485 q 172 456 176 472 q 275 483 218 482 q 409 401 361 479 q 457 239 457 324 q 438 117 457 176 q 380 19 418 57 q 288 -19 342 -19 q 215 -1 243 -19 q 165 39 188 17 l 165 -86 q 185 -200 161 -150 q 14 -200 103 -190 q 31 -147 28 -178 q 33 -86 33 -115 l 33 351 q 31 411 33 379 q 14 465 28 443 q 175 483 96 461 z "},"q":{"ha":485,"x_min":14,"x_max":471,"o":"m 463 483 l 471 485 q 458 451 463 469 q 453 410 454 432 q 453 369 453 389 l 453 -86 q 471 -200 449 -150 q 301 -200 389 -190 q 319 -86 324 -151 l 319 53 q 264 3 293 26 q 183 -19 235 -19 q 91 19 129 -19 q 33 117 53 57 q 14 239 14 176 q 62 401 14 324 q 196 483 110 479 q 319 442 275 478 l 319 464 q 463 483 392 464 m 319 333 q 281 369 306 351 q 217 388 256 386 q 179 372 197 388 q 150 325 161 356 q 139 249 139 294 q 147 175 139 206 q 175 128 156 144 q 225 113 194 113 q 283 142 258 115 q 319 192 308 168 l 319 333 z "},"r":{"ha":417,"x_min":14,"x_max":403,"o":"m 168 431 q 300 485 222 482 q 371 460 340 485 q 403 390 401 436 q 341 290 397 313 q 229 329 285 267 q 251 337 242 331 q 265 351 260 343 q 273 367 271 358 q 275 385 275 376 q 272 399 275 393 q 263 408 268 406 q 249 407 257 410 q 231 393 240 404 q 193 349 207 372 q 172 291 179 325 q 165 204 165 257 l 165 114 q 185 0 161 50 q 14 0 103 10 q 31 53 28 21 q 33 113 33 85 l 33 351 q 31 411 33 379 q 14 465 28 443 q 175 483 96 461 l 185 483 q 168 431 171 461 z "},"s":{"ha":413,"x_min":13,"x_max":400,"o":"m 38 379 q 213 483 81 478 q 281 478 246 485 q 364 403 354 456 q 293 332 369 347 q 233 386 289 385 q 163 343 181 392 q 171 306 156 318 q 213 288 186 294 q 340 243 279 272 q 399 125 400 214 q 335 17 392 54 q 201 -19 279 -19 q 110 -6 153 -19 q 41 35 68 7 q 14 108 14 64 q 41 181 14 158 q 102 198 68 203 q 158 163 136 193 q 141 145 144 154 q 143 129 138 136 q 161 118 149 122 q 192 113 174 114 q 252 131 238 113 q 251 174 267 150 q 183 207 235 197 q 66 257 119 218 q 38 379 13 296 z "},"t":{"ha":304,"x_min":-14,"x_max":311,"o":"m 222 740 l 232 740 q 216 688 218 718 q 214 626 214 658 l 214 476 q 236 474 225 475 q 257 475 247 474 q 311 499 289 475 q 296 447 304 474 q 283 408 289 424 q 267 383 276 392 q 246 369 258 374 q 214 364 233 365 l 214 164 q 229 56 213 99 q 299 11 246 13 l 299 1 q 236 -17 272 -11 q 165 -14 200 -24 q 105 28 129 -4 q 81 128 81 61 l 81 371 q 29 368 53 371 q -14 351 10 367 q 6 414 -4 386 q 33 460 15 442 q 81 483 50 478 q 61 599 82 568 q 222 740 167 646 z "},"u":{"ha":483,"x_min":14,"x_max":469,"o":"m 33 351 q 14 465 38 415 q 165 465 93 456 l 165 231 q 172 152 164 189 q 221 115 179 115 q 310 179 278 119 l 310 351 q 290 465 314 417 q 442 465 369 456 q 442 114 443 297 q 469 0 442 42 q 357 2 399 -24 q 310 82 315 28 q 250 13 285 43 q 167 -19 215 -18 q 122 -12 142 -19 q 88 10 103 -4 q 63 45 74 24 q 47 94 53 67 q 37 154 40 121 q 33 226 33 188 l 33 351 z "},"v":{"ha":486,"x_min":0,"x_max":486,"o":"m 0 465 q 171 465 78 456 q 176 388 161 424 q 243 138 208 264 q 310 388 276 256 q 317 465 325 424 q 486 465 408 456 q 447 376 460 431 l 363 78 q 340 -11 349 40 q 146 -11 244 -3 q 125 78 138 40 q 39 376 83 219 q 0 465 26 431 z "},"w":{"ha":789,"x_min":0,"x_max":789,"o":"m 0 465 q 171 465 78 456 q 176 386 161 422 q 243 131 208 261 q 310 386 276 251 q 322 465 324 433 q 467 465 392 456 q 479 386 465 432 q 546 131 511 261 q 613 386 578 251 q 618 465 628 422 q 789 465 711 456 q 750 375 763 429 l 664 81 q 643 -10 651 42 q 449 -10 547 -1 q 394 238 422 111 q 340 -10 369 111 q 146 -10 244 -1 q 125 81 138 42 q 39 375 83 213 q 0 465 26 429 z "},"x":{"ha":486,"x_min":0,"x_max":486,"o":"m 0 465 q 171 465 76 456 q 176 426 161 444 q 243 299 243 299 q 310 426 243 299 q 317 465 325 444 q 486 465 410 456 q 447 419 460 447 q 343 232 343 232 q 447 44 343 232 q 486 0 460 18 q 317 0 407 8 q 310 39 325 21 q 243 167 243 167 q 176 39 243 167 q 171 0 161 21 q 0 0 76 8 q 39 44 26 18 q 143 232 143 232 q 39 419 143 232 q 0 465 26 447 z "},"y":{"ha":478,"x_min":14,"x_max":464,"o":"m 313 353 q 293 467 317 417 q 464 465 374 457 q 447 412 450 443 q 444 353 444 381 q 444 51 444 197 q 385 -178 444 -106 q 232 -250 325 -250 q 101 -202 147 -250 q 69 -94 56 -154 q 120 -42 85 -51 q 186 -50 156 -33 q 214 -100 217 -67 q 203 -98 208 -96 q 194 -105 197 -100 q 194 -115 192 -110 q 206 -124 196 -121 q 286 -92 256 -131 q 310 -23 307 -65 q 311 61 313 19 q 265 6 293 31 q 197 -18 236 -18 q 76 41 118 -18 q 32 228 33 100 q 33 353 33 288 q 14 467 38 410 q 185 465 92 458 q 168 412 171 443 q 165 353 165 381 l 165 232 q 170 151 163 190 q 221 113 178 113 q 313 188 282 118 l 313 353 z "},"z":{"ha":432,"x_min":10,"x_max":418,"o":"m 383 394 q 358 270 413 314 q 236 211 304 226 q 160 148 158 186 q 232 113 161 110 q 283 135 271 118 q 265 168 294 151 q 356 209 301 217 q 418 126 410 201 q 362 23 418 58 q 228 -18 306 -12 q 85 8 144 -24 q 15 110 25 40 q 72 233 10 199 q 204 289 135 268 q 246 311 231 299 q 254 349 261 324 q 178 386 232 394 q 118 326 119 379 q 40 390 36 335 q 125 472 49 444 q 285 475 208 496 q 383 394 357 453 z "},"{":{"ha":339,"x_min":42,"x_max":297,"o":"m 297 846 l 294 817 q 223 786 242 817 q 203 708 204 756 q 206 606 201 661 q 209 497 211 550 q 185 406 207 444 q 110 353 164 367 q 178 309 156 340 q 206 235 200 278 q 208 146 211 193 q 203 53 206 99 q 205 -30 200 7 q 230 -90 210 -67 q 294 -112 250 -112 l 297 -142 q 174 -101 208 -142 q 133 2 139 -60 q 127 132 126 64 q 112 256 128 200 q 42 340 96 313 l 42 364 q 112 449 96 393 q 127 572 128 504 q 133 702 126 640 q 174 805 139 764 q 297 846 208 846 z "},"}":{"ha":339,"x_min":42,"x_max":297,"o":"m 42 846 q 165 805 131 846 q 206 702 200 764 q 212 572 213 640 q 227 449 211 504 q 297 364 243 393 l 297 340 q 227 256 243 313 q 212 132 211 200 q 206 2 213 64 q 165 -101 200 -60 q 42 -142 131 -142 l 44 -112 q 116 -82 97 -112 q 136 -4 135 -51 q 133 99 138 43 q 130 207 128 154 q 153 299 132 260 q 229 353 175 338 q 161 396 183 365 q 133 469 139 426 q 129 558 126 511 q 135 651 132 606 q 134 734 139 697 q 109 794 129 771 q 44 817 89 817 l 42 846 z "},"¢":{"ha":471,"x_min":26,"x_max":444,"o":"m 199 476 q 181 565 200 528 q 322 565 254 556 q 304 481 303 529 q 374 453 340 475 q 419 386 407 431 q 374 365 400 379 q 324 333 347 351 q 304 378 328 361 l 304 124 q 349 214 351 157 q 422 189 399 218 q 443 114 444 160 q 404 33 440 71 q 304 -17 368 -4 q 322 -94 304 -62 q 181 -94 254 -86 q 199 -8 200 -60 q 67 96 119 18 q 28 236 26 157 q 76 400 26 336 q 199 476 124 454 m 199 356 q 161 236 160 307 q 199 140 163 176 l 199 356 z "},"À":{"ha":897,"x_min":-12,"x_max":897,"o":"m 753 792 l 482 865 q 428 908 435 881 q 465 967 419 951 q 538 944 486 976 l 754 797 l 753 792 m 510 774 q 600 768 553 768 q 690 774 642 768 q 701 660 679 724 q 849 114 775 388 q 897 0 861 49 q 718 0 801 10 q 715 59 728 31 q 682 111 703 88 q 532 257 619 190 q 494 114 514 185 q 482 0 472 50 q 303 0 399 10 q 351 114 339 49 q 411 335 382 224 q 265 382 322 400 q 215 343 232 374 q 214 275 197 313 q 262 247 231 247 q 311 282 293 247 q 346 165 353 240 q 267 56 339 90 q 153 48 214 35 q 51 117 93 61 q 4 332 -12 206 q 219 522 40 514 q 444 458 358 518 q 499 660 444 458 q 510 774 521 724 m 600 510 q 563 369 582 440 q 667 263 618 318 q 600 510 633 386 z "},"Á":{"ha":897,"x_min":-12,"x_max":897,"o":"m 428 792 l 426 797 l 643 944 q 687 966 671 961 q 717 967 703 971 q 753 908 761 951 q 699 865 746 881 l 428 792 m 510 774 q 600 768 553 768 q 690 774 642 768 q 701 660 679 724 q 849 114 775 388 q 897 0 861 49 q 718 0 801 10 q 715 59 728 31 q 682 111 703 88 q 532 257 619 190 q 494 114 514 185 q 482 0 472 50 q 303 0 399 10 q 351 114 339 49 q 411 335 382 224 q 265 382 322 400 q 215 343 232 374 q 214 275 197 313 q 262 247 231 247 q 311 282 293 247 q 346 165 353 240 q 267 56 339 90 q 153 48 214 35 q 51 117 93 61 q 4 332 -12 206 q 219 522 40 514 q 444 458 358 518 q 499 660 444 458 q 510 774 521 724 m 600 508 q 563 369 582 439 q 667 261 618 318 q 600 508 633 386 z "},"Â":{"ha":897,"x_min":-12,"x_max":897,"o":"m 760 792 l 694 792 l 601 899 l 507 792 l 442 792 l 568 967 l 633 967 l 760 792 m 510 774 q 600 768 553 768 q 690 774 642 768 q 701 660 679 724 q 849 114 775 388 q 897 0 861 49 q 718 0 801 10 q 715 59 728 31 q 682 111 703 88 q 532 257 619 190 q 494 114 514 185 q 482 0 472 50 q 303 0 399 10 q 351 114 339 49 q 411 335 382 224 q 265 382 322 400 q 215 343 232 374 q 214 275 197 313 q 262 247 231 247 q 311 282 293 247 q 346 165 353 240 q 267 56 339 90 q 153 48 214 35 q 51 117 93 61 q 4 332 -12 206 q 219 522 40 514 q 444 458 358 518 q 499 660 444 458 q 510 774 521 724 m 600 510 q 563 369 582 440 q 667 263 618 318 q 600 510 633 386 z "},"Æ":{"ha":1193,"x_min":-12,"x_max":1182,"o":"m 1057 850 q 1124 844 1096 861 q 1178 743 1175 811 q 1111 638 1182 675 q 967 620 1053 615 q 826 632 881 625 l 826 472 q 924 465 868 472 q 1014 485 981 458 q 931 353 1042 375 q 826 354 881 347 l 826 125 l 1088 125 q 1145 127 1126 125 q 1179 136 1164 129 q 1179 0 1172 68 l 660 0 q 676 38 671 13 q 682 111 682 63 q 532 257 618 190 q 494 114 514 185 q 482 0 472 50 q 303 0 399 10 q 351 114 339 49 q 411 335 382 224 q 265 381 322 400 q 211 338 226 371 q 214 274 196 306 q 264 246 233 244 q 313 282 294 247 q 345 165 354 239 q 278 56 336 92 q 160 44 226 29 q 51 117 94 60 q 4 332 -12 206 q 219 522 40 514 q 444 457 358 518 l 499 660 q 510 772 521 724 q 626 768 554 772 q 776 761 697 764 q 924 764 856 758 q 1031 790 993 769 q 1057 850 1068 810 m 636 649 q 563 369 600 510 q 683 249 608 331 l 683 647 q 636 649 658 647 z "},"È":{"ha":947,"x_min":-17,"x_max":956,"o":"m 711 792 l 440 865 q 386 908 393 881 q 424 967 378 951 q 496 944 444 976 l 713 797 l 711 792 m 758 849 q 824 843 786 863 q 880 742 876 810 q 811 635 883 674 q 741 622 781 622 q 664 625 701 622 q 528 647 597 631 l 528 463 q 590 457 560 464 q 661 451 621 450 q 715 475 693 451 q 613 342 744 356 q 528 344 560 342 l 528 90 q 650 52 581 64 q 775 57 719 40 q 823 86 801 65 q 829 135 844 107 q 924 104 893 147 q 944 3 956 61 q 871 -83 933 -54 q 683 -93 782 -111 q 489 -28 551 -65 q 385 19 426 8 q 366 4 365 21 q 383 -14 367 -12 q 257 -35 321 -57 q 186 63 193 -12 q 274 172 185 151 q 385 161 329 182 l 385 675 q 281 642 331 672 q 204 550 232 611 q 203 428 178 492 q 260 379 226 375 q 304 418 294 383 q 355 331 351 388 q 323 229 358 275 q 217 183 288 183 q 35 303 86 196 q 7 533 -17 411 q 210 771 44 707 q 415 786 307 800 q 604 756 503 772 q 706 767 656 747 q 753 799 733 778 q 758 849 774 821 z "},"É":{"ha":947,"x_min":-17,"x_max":956,"o":"m 414 792 l 413 797 l 629 944 q 673 966 657 961 q 703 967 689 971 q 739 908 747 951 q 685 865 732 881 l 414 792 m 758 849 q 824 843 786 863 q 880 742 876 810 q 811 635 883 674 q 741 622 781 622 q 664 625 701 622 q 528 647 597 631 l 528 463 q 590 457 560 464 q 661 451 621 450 q 715 475 693 451 q 613 342 744 356 q 528 344 560 342 l 528 90 q 650 52 581 64 q 775 57 719 40 q 823 86 801 65 q 829 135 844 107 q 924 104 893 147 q 944 3 956 61 q 871 -83 933 -54 q 683 -93 782 -111 q 489 -28 551 -65 q 385 19 426 8 q 366 4 365 21 q 383 -14 367 -12 q 257 -35 321 -57 q 186 63 193 -12 q 274 172 185 151 q 385 161 329 182 l 385 675 q 281 642 331 672 q 204 550 232 611 q 203 428 178 492 q 260 379 226 375 q 304 418 294 383 q 355 331 351 388 q 323 229 358 275 q 217 183 288 183 q 35 303 86 196 q 7 533 -17 411 q 210 771 44 707 q 415 786 307 800 q 604 756 503 772 q 706 767 656 747 q 753 799 733 778 q 758 849 774 821 z "},"Ê":{"ha":947,"x_min":-17,"x_max":956,"o":"m 732 792 l 667 792 l 574 899 l 479 792 l 414 792 l 540 967 l 606 967 l 732 792 m 758 849 q 824 843 786 863 q 880 742 876 810 q 811 635 883 674 q 741 622 781 622 q 664 625 701 622 q 528 647 597 631 l 528 463 q 590 457 560 464 q 661 451 621 450 q 715 475 693 451 q 613 342 744 356 q 528 344 560 342 l 528 90 q 650 52 581 64 q 775 57 719 40 q 823 86 801 65 q 829 135 844 107 q 924 104 893 147 q 944 3 956 61 q 871 -83 933 -54 q 683 -93 782 -111 q 489 -28 551 -65 q 385 19 426 8 q 366 4 365 21 q 383 -14 367 -12 q 257 -35 321 -57 q 186 63 193 -12 q 274 172 185 151 q 385 161 329 182 l 385 675 q 281 642 331 672 q 204 550 232 611 q 203 428 178 492 q 260 379 226 375 q 304 418 294 383 q 355 331 351 388 q 323 229 358 275 q 217 183 288 183 q 35 303 86 196 q 7 533 -17 411 q 210 771 44 707 q 415 786 307 800 q 604 756 503 772 q 706 767 656 747 q 753 799 733 778 q 758 849 774 821 z "},"Ì":{"ha":574,"x_min":-17,"x_max":615,"o":"m 614 792 l 343 865 q 289 908 296 881 q 326 967 281 951 q 399 944 347 976 l 615 797 l 614 792 m 546 772 q 526 658 522 724 l 526 113 q 529 53 526 85 q 546 0 532 22 q 365 0 458 10 q 381 53 378 21 q 385 113 385 85 l 383 658 q 281 634 331 657 q 204 551 232 611 q 203 418 178 488 q 260 369 226 365 q 304 408 294 372 q 355 322 351 378 q 323 219 358 265 q 217 174 288 174 q 35 299 86 186 q 7 533 -17 411 q 329 771 60 763 q 418 769 372 772 q 546 772 478 764 z "},"Í":{"ha":574,"x_min":-17,"x_max":622,"o":"m 289 792 l 288 797 l 504 944 q 548 966 532 961 q 578 967 564 971 q 614 908 622 951 q 560 865 607 881 l 289 792 m 546 772 q 526 658 522 724 l 526 113 q 529 53 526 85 q 546 0 532 22 q 365 0 458 10 q 381 53 378 21 q 385 113 385 85 l 383 658 q 281 634 331 657 q 204 551 232 611 q 203 418 178 488 q 260 369 226 365 q 304 408 294 372 q 355 322 351 378 q 323 219 358 265 q 217 174 288 174 q 35 299 86 186 q 7 533 -17 411 q 329 771 60 763 q 418 769 372 772 q 546 772 478 764 z "},"Î":{"ha":574,"x_min":-17,"x_max":621,"o":"m 621 792 l 556 792 l 463 899 l 368 792 l 303 792 l 429 967 l 494 967 l 621 792 m 546 772 q 526 658 522 724 l 526 113 q 529 53 526 85 q 546 0 532 22 q 365 0 458 10 q 381 53 378 21 q 385 113 385 85 l 383 658 q 281 634 331 657 q 204 551 232 611 q 203 418 178 488 q 260 369 226 365 q 304 408 294 372 q 355 322 351 378 q 323 219 358 265 q 217 174 288 174 q 35 299 86 186 q 7 533 -17 411 q 329 771 60 763 q 418 769 372 772 q 546 772 478 764 z "},"Ò":{"ha":654,"x_min":21,"x_max":631,"o":"m 331 790 q 482 738 415 789 q 590 592 556 679 q 626 414 624 506 q 607 227 631 319 q 519 63 583 135 q 353 -19 451 -10 q 174 28 254 -29 q 70 163 104 82 q 31 328 36 243 q 43 526 21 428 q 132 700 65 624 q 93 529 88 621 q 121 436 94 478 q 196 378 147 394 q 231 189 194 279 q 349 124 268 114 q 416 174 393 136 q 446 254 439 213 q 459 424 463 333 q 422 590 456 515 q 384 647 410 621 q 322 674 358 674 q 251 652 286 674 q 210 581 217 631 q 231 517 206 522 q 268 524 256 511 q 273 579 290 553 q 242 610 256 606 q 363 592 322 640 q 393 481 403 543 q 363 414 388 447 q 281 376 338 381 q 134 436 174 376 q 104 581 94 496 q 190 750 114 690 q 331 790 250 790 m 489 792 l 218 865 q 164 908 171 881 q 201 967 156 951 q 274 944 222 976 l 490 797 l 489 792 z "},"Ó":{"ha":654,"x_min":21,"x_max":631,"o":"m 331 790 q 482 738 415 789 q 590 592 556 679 q 626 414 624 506 q 607 227 631 319 q 519 63 583 135 q 353 -19 451 -10 q 174 28 254 -29 q 70 163 104 82 q 31 328 36 243 q 43 526 21 428 q 132 700 65 624 q 93 529 88 621 q 121 436 94 478 q 196 378 147 394 q 231 189 194 279 q 349 124 268 114 q 416 174 393 136 q 446 254 439 213 q 459 424 463 333 q 422 590 456 515 q 384 647 410 621 q 322 674 358 674 q 251 652 286 674 q 210 581 217 631 q 231 517 206 522 q 268 524 256 511 q 273 579 290 553 q 242 610 256 606 q 363 592 322 640 q 393 481 403 543 q 363 414 388 447 q 281 376 338 381 q 134 436 174 376 q 104 581 94 496 q 190 750 114 690 q 331 790 250 790 m 171 792 l 169 797 l 386 944 q 430 966 414 961 q 460 967 446 971 q 496 908 504 951 q 442 865 489 881 l 171 792 z "},"Ô":{"ha":654,"x_min":21,"x_max":631,"o":"m 331 790 q 482 738 415 789 q 590 592 556 679 q 626 414 624 506 q 607 227 631 319 q 519 63 583 135 q 353 -19 451 -10 q 174 28 254 -29 q 70 163 104 82 q 31 328 36 243 q 43 526 21 428 q 132 700 65 624 q 93 529 88 621 q 121 436 94 478 q 196 378 147 394 q 231 189 194 279 q 349 124 268 114 q 416 174 393 136 q 446 254 439 213 q 459 424 463 333 q 422 590 456 515 q 384 647 410 621 q 322 674 358 674 q 251 652 286 674 q 210 581 217 631 q 231 517 206 522 q 268 524 256 511 q 273 579 290 553 q 242 610 256 606 q 363 592 322 640 q 393 481 403 543 q 363 414 388 447 q 281 376 338 381 q 134 436 174 376 q 104 581 94 496 q 190 750 114 690 q 331 790 250 790 m 492 792 l 426 792 l 333 899 l 239 792 l 174 792 l 300 967 l 365 967 l 492 792 z "},"Ù":{"ha":878,"x_min":-17,"x_max":850,"o":"m 781 792 l 510 865 q 456 908 463 881 q 493 967 447 951 q 565 944 514 976 l 782 797 l 781 792 m 418 769 q 546 772 478 764 q 529 722 532 750 q 526 658 526 693 l 526 236 q 529 183 525 213 q 550 132 533 154 q 607 110 567 110 q 665 132 647 110 q 685 184 682 154 q 689 236 689 214 l 689 658 q 669 772 693 724 q 850 772 763 763 q 833 718 836 750 q 831 658 831 686 l 831 233 q 826 177 831 218 q 803 91 822 136 q 738 13 783 46 q 607 -19 692 -19 q 476 13 522 -19 q 410 91 431 46 q 387 177 390 136 q 383 233 383 218 l 383 658 q 281 633 331 657 q 204 550 232 610 q 203 417 178 486 q 260 368 226 364 q 304 407 294 372 q 355 320 351 376 q 323 218 358 264 q 217 172 288 172 q 35 298 86 186 q 7 533 -17 410 q 329 772 60 763 q 418 769 372 772 z "},"Ú":{"ha":878,"x_min":-17,"x_max":850,"o":"m 456 792 l 454 797 l 671 944 q 715 966 699 961 q 744 967 731 971 q 781 908 789 951 q 726 865 774 881 l 456 792 m 418 769 q 546 772 478 764 q 529 722 532 750 q 526 658 526 693 l 526 236 q 529 183 525 213 q 550 132 533 154 q 607 110 567 110 q 665 132 647 110 q 685 184 682 154 q 689 236 689 214 l 689 658 q 669 772 693 724 q 850 772 763 763 q 833 718 836 750 q 831 658 831 686 l 831 233 q 826 177 831 218 q 803 91 822 136 q 738 13 783 46 q 607 -19 692 -19 q 476 13 522 -19 q 410 91 431 46 q 387 177 390 136 q 383 233 383 218 l 383 658 q 281 633 331 657 q 204 550 232 610 q 203 417 178 486 q 260 368 226 364 q 304 407 294 372 q 355 320 351 376 q 323 218 358 264 q 217 172 288 172 q 35 298 86 186 q 7 533 -17 410 q 329 772 60 763 q 418 769 372 772 z "},"Û":{"ha":878,"x_min":-17,"x_max":850,"o":"m 774 792 l 708 792 l 615 899 l 521 792 l 456 792 l 582 967 l 647 967 l 774 792 m 418 769 q 546 772 478 764 q 529 722 532 750 q 526 658 526 693 l 526 236 q 529 183 525 213 q 550 132 533 154 q 607 110 567 110 q 665 132 647 110 q 685 184 682 154 q 689 236 689 214 l 689 658 q 669 772 693 724 q 850 772 763 763 q 833 718 836 750 q 831 658 831 686 l 831 233 q 826 177 831 218 q 803 91 822 136 q 738 13 783 46 q 607 -19 692 -19 q 476 13 522 -19 q 410 91 431 46 q 387 177 390 136 q 383 233 383 218 l 383 658 q 281 633 331 657 q 204 550 232 610 q 203 417 178 486 q 260 368 226 364 q 304 407 294 372 q 355 320 351 376 q 323 218 358 264 q 217 172 288 172 q 35 298 86 186 q 7 533 -17 410 q 329 772 60 763 q 418 769 372 772 z "},"à":{"ha":439,"x_min":7,"x_max":425,"o":"m 201 485 q 307 461 258 485 q 379 386 356 438 q 399 246 401 325 q 397 104 397 167 q 425 0 396 56 q 333 -11 369 -24 q 279 35 297 1 q 190 -19 249 -14 q 44 39 97 -26 q 15 151 7 88 q 69 249 21 203 q 167 278 111 281 q 264 258 224 275 q 250 340 264 301 q 188 386 236 379 q 122 352 140 386 q 107 297 104 318 q 40 319 54 289 q 32 374 26 349 q 106 465 33 431 q 201 485 150 485 m 265 194 q 199 196 233 206 q 167 173 176 188 q 156 144 157 158 q 157 124 154 131 q 177 99 158 114 q 231 94 196 85 q 265 122 251 103 l 265 194 m 367 556 l 113 671 q 65 722 68 693 q 111 775 64 767 q 179 740 135 779 l 371 561 l 367 556 z "},"á":{"ha":439,"x_min":7,"x_max":425,"o":"m 201 485 q 307 461 258 485 q 379 386 356 438 q 399 246 401 325 q 397 104 397 167 q 425 0 396 56 q 333 -11 369 -24 q 279 35 297 1 q 190 -19 249 -14 q 44 39 97 -26 q 15 151 7 88 q 69 249 21 203 q 167 278 111 281 q 264 258 224 275 q 250 340 264 301 q 188 386 236 379 q 122 352 140 386 q 107 297 104 318 q 40 319 54 289 q 32 374 26 349 q 106 465 33 431 q 201 485 150 485 m 265 194 q 199 196 233 206 q 167 173 176 188 q 156 144 157 158 q 157 124 154 131 q 177 99 158 114 q 231 94 196 85 q 265 122 251 103 l 265 194 m 75 556 l 72 561 l 263 740 q 303 769 288 761 q 332 775 318 776 q 376 722 379 767 q 331 671 374 693 l 75 556 z "},"â":{"ha":439,"x_min":7,"x_max":425,"o":"m 201 485 q 307 461 258 485 q 379 386 356 438 q 399 246 401 325 q 397 104 397 167 q 425 0 396 56 q 333 -11 369 -24 q 279 35 297 1 q 190 -19 249 -14 q 44 39 97 -26 q 15 151 7 88 q 69 249 21 203 q 167 278 111 281 q 264 258 224 275 q 250 340 264 301 q 188 386 236 379 q 122 352 140 386 q 107 297 104 318 q 40 319 54 289 q 32 374 26 349 q 106 465 33 431 q 201 485 150 485 m 265 194 q 199 196 233 206 q 167 173 176 188 q 156 144 157 158 q 157 124 154 131 q 177 99 158 114 q 231 94 196 85 q 265 122 251 103 l 265 194 m 399 578 l 326 578 l 221 697 l 117 578 l 43 578 l 185 774 l 257 774 l 399 578 z "},"æ":{"ha":701,"x_min":7,"x_max":674,"o":"m 201 485 q 351 428 292 485 q 494 483 407 472 q 513 485 503 485 q 600 464 558 485 q 658 400 642 443 q 643 294 672 349 q 539 229 606 240 q 400 228 472 218 q 432 142 400 178 q 508 114 460 114 q 547 132 539 118 q 529 163 554 146 q 585 198 551 193 q 647 181 619 203 q 674 108 674 160 q 622 21 671 58 q 490 -19 572 -17 q 399 0 446 -21 q 315 68 351 21 q 176 -19 269 -12 q 44 39 92 -21 q 15 153 7 88 q 69 249 21 203 q 167 278 111 281 q 264 258 224 275 q 250 340 264 301 q 188 386 236 379 q 122 352 140 386 q 107 297 104 318 q 40 319 54 289 q 32 375 26 349 q 106 465 33 431 q 201 485 150 485 m 511 382 q 436 347 468 382 q 404 274 406 315 q 483 276 443 269 q 546 304 524 282 q 550 368 579 340 q 511 382 532 382 m 272 192 q 199 196 238 207 q 172 180 182 190 q 159 159 163 169 q 155 139 156 149 q 157 124 154 129 q 177 99 158 114 q 231 94 196 85 q 281 147 265 110 q 272 192 275 169 z "},"è":{"ha":450,"x_min":14,"x_max":422,"o":"m 243 485 q 340 470 292 490 q 407 401 388 450 q 392 296 421 350 q 287 231 354 242 q 149 229 219 219 q 181 143 147 179 q 256 115 208 114 q 295 133 288 118 q 278 164 303 147 q 333 199 300 194 q 394 182 367 204 q 422 110 422 160 q 370 22 419 60 q 239 -19 321 -17 q 90 39 161 -22 q 14 236 18 100 q 73 403 15 336 q 243 485 131 471 m 299 371 q 240 383 272 390 q 183 349 207 375 q 151 275 154 318 q 231 277 190 271 q 293 306 272 283 q 299 371 326 342 m 381 556 l 126 671 q 79 722 82 693 q 125 775 78 767 q 193 740 149 779 l 385 561 l 381 556 z "},"é":{"ha":450,"x_min":14,"x_max":422,"o":"m 243 485 q 340 470 292 490 q 407 401 388 450 q 392 296 421 350 q 287 231 354 242 q 149 229 219 219 q 181 143 147 179 q 256 115 208 114 q 295 133 288 118 q 278 164 303 147 q 333 199 300 194 q 394 182 367 204 q 422 110 422 160 q 370 22 419 60 q 239 -19 321 -17 q 90 39 161 -22 q 14 236 18 100 q 73 403 15 336 q 243 485 131 471 m 299 371 q 240 383 272 390 q 183 349 207 375 q 151 275 154 318 q 231 277 190 271 q 293 306 272 283 q 299 371 326 342 m 75 556 l 72 561 l 263 740 q 303 769 288 761 q 332 775 318 776 q 376 722 379 767 q 331 671 374 693 l 75 556 z "},"ê":{"ha":450,"x_min":14,"x_max":422,"o":"m 243 485 q 340 470 292 490 q 407 401 388 450 q 392 296 421 350 q 287 231 354 242 q 149 229 219 219 q 181 143 147 179 q 256 115 208 114 q 295 133 288 118 q 278 164 303 147 q 333 199 300 194 q 394 182 367 204 q 422 110 422 160 q 370 22 419 60 q 239 -19 321 -17 q 90 39 161 -22 q 14 236 18 100 q 73 403 15 336 q 243 485 131 471 m 299 371 q 240 383 272 390 q 183 349 207 375 q 151 275 154 318 q 231 277 190 271 q 293 306 272 283 q 299 371 326 342 m 399 578 l 326 578 l 221 697 l 117 578 l 43 578 l 185 774 l 257 774 l 399 578 z "},"ì":{"ha":211,"x_min":-47,"x_max":258,"o":"m 256 556 l 1 671 q -46 722 -43 693 q 0 775 -47 767 q 68 740 24 779 l 258 561 l 256 556 m 182 483 l 192 485 q 178 451 182 469 q 174 410 175 432 q 172 369 172 389 l 172 114 q 192 0 168 50 q 21 0 110 10 q 38 53 35 21 q 40 113 40 85 l 40 351 q 38 411 40 379 q 21 465 35 443 q 182 483 103 461 z "},"í":{"ha":211,"x_min":-42,"x_max":265,"o":"m -39 557 l -42 563 l 149 742 q 189 770 174 763 q 217 776 204 778 q 263 724 265 768 q 215 672 260 694 l -39 557 m 182 483 l 192 485 q 178 451 182 469 q 174 410 175 432 q 172 369 172 389 l 172 114 q 192 0 168 50 q 21 0 110 10 q 38 53 35 21 q 40 113 40 85 l 40 351 q 38 411 40 379 q 21 465 35 443 q 182 483 103 461 z "},"î":{"ha":213,"x_min":-68,"x_max":288,"o":"m 288 578 l 215 578 l 110 697 l 6 578 l -68 578 l 74 774 l 146 774 l 288 578 m 182 483 l 192 485 q 178 451 182 469 q 174 410 175 432 q 172 369 172 389 l 172 114 q 192 0 168 50 q 21 0 110 10 q 38 53 35 21 q 40 113 40 85 l 40 351 q 38 411 40 379 q 21 465 35 443 q 182 483 103 461 z "},"ò":{"ha":475,"x_min":14,"x_max":461,"o":"m 238 483 q 396 416 331 483 q 461 232 461 349 q 403 54 461 128 q 238 -19 344 -19 q 72 54 131 -19 q 14 232 14 128 q 79 416 14 349 q 238 483 144 483 m 238 388 q 175 347 201 388 q 149 250 149 307 q 169 153 149 193 q 238 114 189 114 q 306 153 286 114 q 326 250 326 193 q 301 347 326 307 q 238 388 275 388 m 394 556 l 140 671 q 93 722 96 693 q 139 775 92 767 q 207 740 163 779 l 399 561 l 394 556 z "},"ó":{"ha":475,"x_min":14,"x_max":461,"o":"m 238 483 q 396 416 331 483 q 461 232 461 349 q 403 54 461 128 q 238 -19 344 -19 q 72 54 131 -19 q 14 232 14 128 q 79 416 14 349 q 238 483 144 483 m 238 388 q 175 347 201 388 q 149 250 149 307 q 169 153 149 193 q 238 114 189 114 q 306 153 286 114 q 326 250 326 193 q 301 347 326 307 q 238 388 275 388 m 89 557 l 86 563 l 276 742 q 317 770 301 763 q 346 776 332 778 q 390 724 393 768 q 344 672 388 694 l 89 557 z "},"ô":{"ha":475,"x_min":14,"x_max":461,"o":"m 238 483 q 396 416 331 483 q 461 232 461 349 q 403 54 461 128 q 238 -19 344 -19 q 72 54 131 -19 q 14 232 14 128 q 79 416 14 349 q 238 483 144 483 m 238 388 q 175 347 201 388 q 149 250 149 307 q 169 153 149 193 q 238 114 189 114 q 306 153 286 114 q 326 250 326 193 q 301 347 326 307 q 238 388 275 388 m 419 578 l 347 578 l 242 697 l 138 578 l 64 578 l 206 774 l 278 774 l 419 578 z "},"ù":{"ha":483,"x_min":14,"x_max":469,"o":"m 33 351 q 14 465 38 415 q 165 465 93 456 l 165 231 q 172 152 164 189 q 221 115 179 115 q 310 179 278 119 l 310 351 q 290 465 314 417 q 442 465 369 456 q 442 114 443 297 q 469 0 442 42 q 357 2 399 -24 q 310 82 315 28 q 250 13 285 43 q 167 -19 215 -18 q 122 -12 142 -19 q 88 10 103 -4 q 63 45 74 24 q 47 94 53 67 q 37 154 40 121 q 33 226 33 188 l 33 351 m 394 556 l 140 671 q 93 722 96 693 q 139 775 92 767 q 207 740 163 779 l 399 561 l 394 556 z "},"ú":{"ha":483,"x_min":14,"x_max":469,"o":"m 33 351 q 14 465 38 415 q 165 465 93 456 l 165 231 q 172 152 164 189 q 221 115 179 115 q 310 179 278 119 l 310 351 q 290 465 314 417 q 442 465 369 456 q 442 114 443 297 q 469 0 442 42 q 357 2 399 -24 q 310 82 315 28 q 250 13 285 43 q 167 -19 215 -18 q 122 -12 142 -19 q 88 10 103 -4 q 63 45 74 24 q 47 94 53 67 q 37 154 40 121 q 33 226 33 188 l 33 351 m 89 556 l 86 561 l 276 740 q 317 769 301 761 q 346 775 332 776 q 390 722 393 767 q 344 671 388 693 l 89 556 z "},"û":{"ha":483,"x_min":14,"x_max":469,"o":"m 33 351 q 14 465 38 415 q 165 465 93 456 l 165 231 q 172 152 164 189 q 221 115 179 115 q 310 179 278 119 l 310 351 q 290 465 314 417 q 442 465 369 456 q 442 114 443 297 q 469 0 442 42 q 357 2 399 -24 q 310 82 315 28 q 250 13 285 43 q 167 -19 215 -18 q 122 -12 142 -19 q 88 10 103 -4 q 63 45 74 24 q 47 94 53 67 q 37 154 40 121 q 33 226 33 188 l 33 351 m 417 578 l 344 578 l 239 697 l 135 578 l 61 578 l 203 774 l 275 774 l 417 578 z "},"€":{"ha":743,"x_min":28,"x_max":715,"o":"m 442 -15 q 121 257 196 -15 q 28 246 72 257 q 32 308 32 276 q 28 375 32 342 q 104 367 72 367 q 107 436 104 414 q 28 426 67 436 q 32 489 32 457 q 28 556 32 522 q 131 546 79 546 l 140 572 q 244 726 175 664 q 415 789 314 788 l 421 789 q 601 735 528 789 q 654 678 633 711 q 542 589 588 638 q 435 668 519 668 q 313 590 346 668 q 294 543 303 568 q 460 556 408 546 q 456 493 456 526 q 460 426 456 461 q 278 440 415 438 q 276 363 276 417 q 460 375 407 365 q 456 313 456 346 q 460 246 456 281 q 293 260 417 257 q 438 121 329 121 q 510 161 479 121 q 557 256 542 201 q 567 328 567 293 q 565 354 567 342 l 586 354 q 713 232 696 356 q 715 203 715 217 q 651 60 715 124 q 442 -15 576 -15 z "},"ﬁ":{"ha":511,"x_min":-14,"x_max":497,"o":"m 488 483 l 497 485 q 484 451 488 469 q 479 410 481 432 q 478 369 478 389 l 478 114 q 497 0 474 50 q 326 0 415 10 q 343 53 340 21 q 346 113 346 85 l 346 351 q 343 411 346 379 q 326 465 340 443 q 488 483 408 461 m 304 793 q 440 756 390 790 q 492 671 490 722 q 414 578 482 582 q 369 590 392 576 q 338 640 346 604 q 367 679 376 650 q 311 711 358 708 q 192 503 194 714 q 257 499 228 497 q 311 522 289 499 q 296 471 304 497 q 281 428 289 444 q 263 402 274 411 q 235 390 253 393 q 192 388 218 388 l 192 114 q 211 0 188 50 q 40 0 129 10 q 57 53 54 21 q 60 113 60 85 l 58 393 q -14 375 21 396 q 13 453 -1 421 q 58 501 28 486 q 85 658 57 579 q 304 793 132 788 z "},"ﬂ":{"ha":532,"x_min":-14,"x_max":518,"o":"m 282 793 q 482 658 438 785 q 499 533 500 601 q 499 114 500 356 q 518 0 494 49 q 347 0 429 10 q 367 114 371 50 q 367 507 368 311 q 357 618 367 565 q 331 686 349 657 q 283 717 314 715 q 229 688 249 715 q 201 618 210 660 q 192 503 192 564 q 257 499 228 497 q 311 524 289 499 q 296 471 304 499 q 281 428 289 444 q 263 403 274 411 q 235 391 253 394 q 192 389 218 388 l 192 114 q 211 0 188 50 q 40 0 129 10 q 57 53 54 22 q 60 114 60 85 l 58 394 q -14 376 21 396 q 13 455 -1 422 q 58 501 28 488 q 81 658 56 581 q 282 793 124 789 z "},"":{"ha":482,"x_min":-107,"x_max":990,"o":"m 14 239 q 63 403 15 328 q 196 485 110 479 q 317 444 271 479 l 317 465 q 460 485 388 464 l 469 485 q 449 389 451 444 q 447 126 447 256 q 436 -82 450 25 q 569 -131 569 -131 q 612 -106 569 -131 q 718 -57 654 -81 q 850 -33 782 -33 q 937 -62 894 -33 q 986 -147 979 -92 q 915 -297 990 -232 q 689 -328 839 -362 q 561 -276 628 -310 q 510 -405 514 -340 q 567 -510 506 -469 q 472 -553 515 -550 q 401 -543 428 -556 q 342 -429 336 -508 q 458 -222 358 -326 q 406 -194 432 -207 q 254 -392 361 -314 q 0 -410 126 -467 q -93 -287 -75 -365 q -11 -93 -107 -174 q 82 -53 31 -64 q 185 -42 133 -42 q 310 -50 247 -40 q 315 49 314 -6 q 262 2 290 24 q 183 -19 233 -19 q 91 19 129 -19 q 33 117 53 58 q 14 239 14 175 m 217 388 q 180 372 197 388 q 151 326 163 357 q 139 249 139 296 q 147 175 139 206 q 175 128 156 144 q 225 114 194 113 q 281 139 257 115 q 317 186 304 163 l 317 335 q 293 358 307 346 q 260 378 279 369 q 217 388 242 388 m 210 -126 q 104 -168 149 -125 q 91 -224 82 -194 q 147 -257 100 -253 q 292 -142 261 -256 q 210 -126 251 -128 m 810 -129 q 681 -168 742 -131 q 796 -179 733 -185 q 840 -147 836 -167 q 810 -129 846 -131 z "},"":{"ha":482,"x_min":-657,"x_max":468,"o":"m 14 238 q 62 403 14 328 q 196 483 110 478 q 315 443 269 478 l 315 464 q 458 483 388 463 l 468 483 q 452 431 456 454 q 449 388 449 407 q 447 63 447 229 q 442 -74 449 -6 q 371 -272 432 -187 q 149 -364 310 -357 q -32 -333 53 -362 q -279 -276 -117 -303 q -460 -273 -397 -257 q -515 -360 -522 -289 q -603 -332 -560 -362 q -653 -244 -646 -301 q -582 -95 -657 -161 q -357 -62 -507 -29 q -241 -112 -299 -81 q -125 -175 -183 -144 q 1 -226 -64 -207 q 135 -242 65 -246 q 283 -157 244 -232 q 315 47 321 -82 q 260 1 289 22 q 182 -21 232 -21 q 90 18 128 -21 q 33 116 53 57 q 14 238 14 175 m 317 333 q 278 369 303 353 q 217 386 253 385 q 178 371 196 386 q 150 325 161 356 q 138 247 139 294 q 147 174 138 204 q 174 127 156 143 q 224 113 193 111 q 280 138 256 114 q 317 185 304 161 l 317 333 z "},"":{"ha":478,"x_min":-111,"x_max":986,"o":"m 313 353 q 293 467 315 418 q 464 467 375 457 q 447 413 450 444 q 444 353 444 381 l 444 65 q 432 -81 444 -6 q 565 -129 565 -129 q 608 -104 565 -129 q 714 -56 650 -79 q 846 -32 778 -32 q 933 -61 890 -32 q 982 -146 975 -90 q 910 -296 986 -231 q 685 -326 835 -361 q 557 -275 624 -308 q 506 -403 510 -339 q 563 -508 501 -468 q 467 -551 511 -549 q 397 -542 424 -554 q 338 -428 333 -507 q 454 -221 354 -325 q 401 -193 428 -206 q 250 -390 357 -312 q 122 -436 193 -429 q -4 -408 51 -443 q -97 -286 -78 -360 q -15 -92 -111 -172 q 78 -51 26 -62 q 181 -40 129 -40 q 306 -49 243 -39 q 311 61 311 4 q 264 6 292 31 q 197 -18 236 -18 q 76 41 118 -18 q 32 228 33 100 q 33 353 33 289 q 14 467 38 418 q 185 467 96 457 q 168 413 171 444 q 165 353 165 381 l 165 232 q 170 153 163 190 q 221 117 178 117 q 313 189 282 121 l 313 353 m 288 -140 q 188 -126 243 -122 q 88 -185 108 -139 q 143 -256 68 -232 q 235 -232 199 -267 q 288 -140 272 -197 m 806 -128 q 676 -167 738 -129 q 792 -178 729 -183 q 836 -146 832 -165 q 806 -128 842 -129 z "},"":{"ha":478,"x_min":-660,"x_max":464,"o":"m 313 351 q 293 465 317 417 q 464 465 374 456 q 448 411 450 443 q 446 351 446 379 q 444 64 446 206 q 439 -72 446 0 q 368 -271 429 -186 q 146 -362 307 -356 q -35 -331 50 -361 q -282 -275 -119 -301 q -462 -272 -400 -256 q -518 -358 -525 -287 q -606 -331 -562 -361 q -656 -243 -649 -300 q -585 -94 -660 -160 q -360 -61 -510 -28 q -244 -111 -301 -79 q -128 -174 -186 -143 q -2 -225 -67 -206 q 132 -240 63 -244 q 293 -132 260 -235 q 311 61 317 -40 q 265 5 293 29 q 197 -19 238 -19 q 76 40 118 -19 q 33 226 33 99 l 33 351 q 14 465 38 417 q 185 465 92 457 q 169 411 172 443 q 167 351 167 379 q 165 231 167 288 q 172 151 164 189 q 222 113 179 113 q 313 186 282 117 l 313 351 z "},"":{"ha":1247,"x_min":-8,"x_max":1219,"o":"m 811 792 q 1044 735 939 792 q 1160 565 1150 679 q 1140 472 1161 515 q 1074 413 1119 428 q 1185 349 1150 401 q 1219 214 1219 296 q 1151 50 1217 114 q 939 -19 1071 -22 q 694 -14 822 -18 q 376 -22 513 -8 q 202 -79 258 -37 q 172 -189 146 -121 q 81 -188 129 -204 q 8 -115 32 -172 q 9 -3 -8 -65 q 84 106 26 60 q 244 154 142 153 q 497 125 369 150 q 756 94 624 100 l 756 465 q 753 522 756 486 q 738 579 750 557 q 908 644 825 585 l 917 644 q 901 590 904 621 q 899 531 899 558 l 899 440 q 997 468 961 431 q 1031 563 1032 506 q 956 655 1024 629 q 806 681 888 681 q 676 653 740 681 q 578 553 611 625 q 575 419 550 489 q 632 371 597 367 q 675 410 667 375 q 726 323 722 379 q 695 221 731 267 q 588 175 660 175 q 453 238 501 182 q 392 376 406 294 q 396 536 379 457 q 607 761 435 694 q 811 792 700 792 m 969 342 q 899 331 938 342 l 899 99 q 1017 134 960 104 q 1075 239 1074 164 q 969 342 1067 340 z "},"":{"ha":1188,"x_min":-17,"x_max":1174,"o":"m 733 832 q 793 840 760 840 q 874 794 840 839 q 882 667 908 742 l 882 453 q 990 485 928 481 q 1126 401 1078 479 q 1174 240 1174 324 q 1154 117 1174 176 q 1097 19 1135 58 q 1004 -19 1058 -19 q 931 -1 958 -19 q 882 40 904 17 l 882 0 q 731 0 808 10 q 746 53 743 22 q 749 114 749 85 l 749 594 q 556 615 656 589 l 556 114 q 558 54 556 86 q 575 0 561 22 q 394 0 488 10 q 414 114 418 49 l 413 650 q 324 649 363 657 q 224 585 265 638 q 204 446 179 522 q 259 401 224 400 q 304 436 294 403 q 356 352 353 407 q 324 251 360 297 q 218 201 289 204 q 31 310 78 208 q 8 535 -17 413 q 208 756 46 704 q 417 769 304 782 q 633 742 533 753 q 724 756 686 736 q 733 832 763 776 m 971 388 q 882 346 910 382 l 882 169 q 963 114 911 122 q 1049 250 1051 117 q 1024 353 1047 318 q 971 388 1000 388 z "},"":{"ha":1210,"x_min":-17,"x_max":1196,"o":"m 633 742 q 724 756 686 736 q 733 832 763 776 q 810 838 774 844 q 874 794 847 831 q 882 667 908 742 l 882 392 q 939 454 904 425 q 1018 485 974 483 q 1176 239 1178 488 l 1176 114 q 1179 54 1176 86 q 1196 0 1182 22 q 1025 0 1114 10 q 1044 114 1049 49 l 1044 235 q 1037 313 1046 276 q 989 350 1028 350 q 930 323 963 347 q 882 254 897 299 l 882 114 q 885 54 882 86 q 900 0 888 22 q 731 0 818 10 q 746 53 743 22 q 749 114 749 85 l 749 594 q 556 615 656 589 l 556 114 q 558 54 556 86 q 575 0 561 22 q 394 0 488 10 q 411 53 408 22 q 414 114 414 85 l 413 650 q 324 649 363 657 q 224 585 265 638 q 204 446 179 522 q 259 401 224 400 q 304 436 294 403 q 356 352 353 407 q 324 251 360 297 q 218 201 289 204 q 31 310 78 208 q 8 535 -17 413 q 208 756 46 704 q 417 769 304 782 q 633 742 533 753 z "},"":{"ha":1185,"x_min":-17,"x_max":1192,"o":"m 633 742 q 724 756 686 736 q 733 832 763 776 q 793 840 761 842 q 874 794 840 839 q 882 667 908 742 l 882 379 q 949 452 910 421 q 1039 485 988 483 q 1116 456 1092 485 q 1140 386 1140 428 q 1086 290 1138 324 q 982 253 1035 256 l 982 250 q 1032 248 1007 250 q 1082 228 1057 246 q 1120 164 1110 207 q 1139 79 1131 121 q 1163 27 1147 47 q 1192 0 1178 7 q 1065 3 1101 0 q 1014 33 1028 7 q 985 122 1000 58 q 963 182 975 163 q 931 208 950 201 q 882 213 913 214 l 882 114 q 885 54 882 86 q 900 0 888 22 q 731 0 818 10 q 746 53 743 22 q 749 114 749 85 l 749 594 q 556 615 656 589 l 556 114 q 558 54 556 86 q 575 0 561 22 q 394 0 488 10 q 414 114 418 49 l 413 650 q 324 649 363 657 q 224 585 265 638 q 204 446 179 522 q 259 401 224 400 q 304 436 294 403 q 356 352 353 407 q 324 251 360 297 q 218 201 289 204 q 31 310 78 208 q 8 535 -17 413 q 208 756 46 704 q 417 769 304 782 q 633 742 533 753 m 1022 363 q 999 385 1019 383 q 968 375 983 385 q 926 333 953 365 q 882 271 899 301 q 988 301 942 274 q 1022 363 1025 325 z "},"":{"ha":914,"x_min":-17,"x_max":908,"o":"m 733 832 q 793 840 757 842 q 874 794 840 839 q 882 667 908 742 l 882 114 q 885 54 882 86 q 900 0 888 22 q 731 0 818 10 q 749 114 753 49 l 749 594 q 556 615 656 589 l 556 114 q 558 54 556 86 q 575 0 561 22 q 394 0 488 10 q 411 53 408 22 q 414 114 414 85 l 413 650 q 324 649 363 657 q 224 585 265 638 q 204 446 179 522 q 259 401 224 400 q 304 436 294 403 q 356 352 353 407 q 324 251 360 297 q 218 201 289 204 q 31 310 78 208 q 8 535 -17 413 q 208 756 46 704 q 417 769 304 782 q 633 742 533 753 q 724 756 686 736 q 733 832 763 776 z "},"":{"ha":900,"x_min":-17,"x_max":910,"o":"m 788 833 q 814 838 800 838 q 869 817 844 839 q 908 716 910 778 q 840 619 906 654 q 694 594 774 590 q 556 617 626 600 l 556 115 q 558 56 556 88 q 575 1 561 24 q 394 1 488 11 q 411 55 408 24 q 414 115 414 86 l 413 651 q 325 650 364 658 q 225 586 265 639 q 204 447 179 524 q 260 403 224 401 q 306 438 296 404 q 356 353 353 408 q 324 251 360 297 q 218 203 289 206 q 31 312 78 210 q 10 536 -17 414 q 210 757 46 706 q 417 771 304 783 q 633 742 533 754 q 736 751 686 735 q 782 785 763 763 q 788 833 801 807 m 876 486 l 886 486 q 874 453 878 472 q 869 412 869 433 q 868 372 868 390 l 868 115 q 886 1 863 51 q 717 1 804 11 q 732 55 729 24 q 735 115 735 86 l 735 353 q 732 414 735 382 q 715 467 729 446 q 876 486 797 464 z "},"":{"ha":476,"x_min":14,"x_max":463,"o":"m 238 485 q 397 417 331 485 q 463 233 463 350 q 403 56 463 129 q 238 -18 344 -18 q 72 56 131 -18 q 14 233 14 129 q 39 357 14 303 q 54 383 46 371 q 51 322 47 360 q 78 250 54 285 q 154 200 103 213 q 181 138 160 161 q 238 115 201 115 q 307 155 286 115 q 328 251 328 194 q 301 348 328 308 q 238 388 275 388 q 186 365 210 388 q 175 311 165 343 q 199 310 183 299 q 197 347 213 324 q 258 314 244 347 q 258 247 272 281 q 189 206 243 211 q 88 257 121 207 q 69 385 49 315 q 126 454 85 429 q 238 485 176 485 z "}}}
